<mxfile host="65bd71144e">
    <diagram id="iWVvL-kGI7XXVBUMZa-J" name="第 1 页">
        <mxGraphModel dx="1617" dy="942" grid="1" gridSize="10" guides="1" tooltips="1" connect="1" arrows="1" fold="1" page="1" pageScale="1" pageWidth="827" pageHeight="1169" math="0" shadow="0">
            <root>
                <mxCell id="0"/>
                <mxCell id="1" parent="0"/>
                <mxCell id="3" value="" style="shape=image;verticalLabelPosition=bottom;labelBackgroundColor=default;verticalAlign=top;aspect=fixed;imageAspect=0;image=data:image/png,iVBORw0KGgoAAAANSUhEUgAAA08AAAJNCAYAAADpgU6lAAAgAElEQVR4nOzdfVTU9533/2f3iMjMCAoyYBAQkKIBgeQyUnKMN7HEctX0TtImubKNmprEPcmu0Sa6Te1eV920Jjaa3eSsadPEJJdtkgZ7k831M5YajcnGelMFqo0WBQFJYJBbZwZRz/b3x8zAMMzADM4MIK/HOZ49853PfD/vwZwuLz+fz/v7uZk5c/6GXAey+fsnvkJK/Ts89cbJ4S5GREREROS6M264C5BrtZh/+N9zmQrQeJiNCk4iIiIiIiHxOa08iYiIiIiIDO7vhrsAERERERGR0UDhSURERERExA8KTyIiIiIiIn5QeBIREREREfGDwpOIiIiIiIgfFJ5ERERERET8oOc8XdduJm7jfSRN7L3SsnstDfuGr6LB9dY87LUWpLFi+Qw695axq3Q4CrjCjlcquPF0HgVPR/Rent/KoUe7+f1dU9kYrKnmt3Lo0Wqigc6jHvOJiIiICBDS8BRDXGYq0XTTcu40nVdCN5N4Z3rkPpL4hFNPvMTl4S4GMD2ylfTJn3Bq08ioZ6TbtKWCL5DOM55B5kAsv7/zKCVvA0EJUFbefbQajuYxS6FJRERExKeQhKcocy6JMR20NHdDfChmkMF9hZgUaNk92oLKMVo2HaNluMsYZivWn6VkehKld8Wyw8v7Gx/PY9orFZRsmcjGx03XNtn9F8kgiVIFJxEREZEBBf3M07hJWSRSS01VLfZg31z8l5lA1HDXIEMzv5WH57Rx9t2BVpUiWPFqOp3TT/Hu/WGsTURERGQMC/rK09X209QE+6ahMCWH93Lcl8Wa2bP/BNv6DIrnZwtzSHG/1HyCL51sBgxsnltAPtW8dLiWXW5DlqUWsCrN5ryfY9yMpkO8wWxWpRkGmA8ey17Ekp6y7JQfPsSGoKdQ57mitv1UvvBOz1XPbXWmR7aSzn4qT2aSW5zkHNVFw0tP0lLlcctF69zGgP3YTs68eQz4CknPLCSu551ZzHxmq5dxnuezfMwDjL/7KWbe7BYN67x8D3/rHpSN1noji7bcSp5rged8Bc89Zekzyrz6Vu7NNfZesJ7hl4/X0DOqJI81i6Fs9RnMg9xrRWEb0RfTefG1QUo7EMvv76ymZEErK17zvkIlIiIiIsEzNhtGGFIpTWjiS/tPuC6weW4BS+amUtcThAxsnptDSk9Y8mRnQ3Uz7+Ukcouhll09AcfALQkGrDV/7hOMTGkFrGo+wZf2N+MKZUuy49nWc29nGDO4hyoDm7NTWXaybzjzrX+DCEPxVuKKnS8uDuG8UcpCcid/wqknnuWy6/53r+Ki231cYca9wcP4u9cRl3mMlqp3aHjiHRoY7MyT23a9RevILY71Wo7pka2kpzRQ/cSzWAFXOMvdmND3vn7U7R8jectvpX5vGc+V4mwikceyErcmEiV5fJkKnlttc14ws2x7Hvc+afMIRmaKtpvpqPyY57bbvN+LK8zPaoOWBL/C0MYTSZQs7SY9oO8kIiIiIkMxNsOTvZaSk30ucKTJTn7aRLdVJiOxBrA22fp9vMeFJurIIT8tHlwhaEo6+QY75c0ey0V9QlgznzRDitHAMmAXsCx1tuNzh91Xo+xsOFkbwBdzCyCZq5ixahZd19qxrk/gOsbFqmVwczTjwXEtcxUpN0dhP7azzzyX33w2+OeWMleRmAItu13BCeAdGnZnElc8nYmZ9K4sDVZ3AOrdu+0dquHwF2dQlGUG17pSaYVH0LFw6jwkTzLiNsrLvWx0LofoeCPg+u+sm/iJcPYDP88x1UTSSTU33T8VBlup8mFTTgOcmxm8zn0iIiIi16mxGZ7w3B7n4h6UmtlTY2dVWgHvpeERfjzHJPAYzWwDHkuIh+YTAW+1SzEZwF7NkdF2UGxaNAa6aPjTsTDN1UCjZxjcV0VL8UImTAMC3pYXuOZWG6S7ByOPbX0uVs9P2mitd39tYdfqsr5D5l8mHvC21hlsm7YcpWQ6nH13DrOGGLxERERExpIx+ZBcR3CyU354H1/a7/jzUk3/1LKr9pDj/RPNEJ/DewsX8d7cVJa5j2luxEo8s6YAxDMr3k55TTh+9ZXhEh/rdrapJzhZKFtdxnPOP2Xnh3jzA+OHEJwm0zyEg4YbH5/DrLvmcDznKJ+80sqKwG8hIiIiMqaMwfBkIMEINFf7vzp04URviDIkcovB7T17Lf/VDCkJ8TAlgZRA7uumzmoHw8S+zSlGg/Od2IlyrPqEZa4kYhZ5XF+USRxdXBpqYAmIEfMkoN3Ws+oUa4KOyjOcHPiDfoqk+SJk5PRbtvIurZtoDJw/MPQZN55Igok6NyUiIiIymDEYnuw02QDneSNwdcczDPQhxzij42xKk0c42tbkXJnKiaeuaWirTrtqq6kjniV9VracDSOGdMeBHKO7DZicwHjnFUcjhiHcquolGusgrvgp4jJ7LzsaRvQdevlCF0x0nE0akqo/0XYR4orX0btD7iskFSdB3aEhdNILnHl1HnkmGxV/cJ1kstFqhRi31ajsJ4soGnKYjODA6ckw/SKb/Bi9KacBLkZSPdTpRERERMRvwT/zFGHmhumJRLpdipue62hV3VFLjaUj6FMGatvJE8xamMOqhemsArBX89KJiazKcRtkSKV0bjp9j7F4by/OhWrK7fHkU82eC0OtqpkH9x9i89yC3rqcrcr967QXGOsL+2l5ZmFP23D7sZ2curCMmUMINtYX1nLq7qeYuWorrsbg9mM7OeMRZi6/+STVU7aS7jnOa0tzSHKN62lF7miI0f3IVtI92p1XvhmCM1fOhg7Ji4tYs9h10ULZ6gq3VSYb+0rPMH15Hmu2Oy+dr+CXlTO4d4hLOTsOTubhOdXcsX4KGwd6cO38Vu6YDmffVZtyERERkXD43MycOX8b7iJGv95nOZXUjraODzISrVh/lifmGCi9y9eDcq+w45UKvtAyk1mP+9mZz5f7P+OTpQwwl4iIiIjAmNy2F3yPZTselvuGgpMEyY6nU/jjxQZK3v7M6/a9TVsq+MLEJEqvNTiBs915A3esv3Lt9xIRERG5jmnlacgcD7pNAce2v8P+PshWxF+O1aUbT+dR4L59b34rhx7t5vfBXCm6/zM+WdoAQOdRj/lEREREBFB4EhERERER8Yu27YmIiIiIiPhB4UlERERERMQPCk8iIiIiIiJ+GHPhKW7KFMaNC/7jrURERERE5Po25sKTiIiIiIjIUCg8iYiIiIiI+EHhSURERERExA86/DNGRS37Dfn5pp7XXeU/pXxXaYhmM7Joy63k9Uxno+LVj9l3KETT9VPIDwpXM6txO/fUHOy5etdD83h4thHrnz/iq8cT+N23MzFZq3hxQzVvh6u0UJmb7vZ9mijYPI+bTDaOv/4R3z3cO2zl7Ncpsvb9uYiIiIiId6EJT4ZU0pJiel9faqS+3sLVkEwmQ9G16+sc3AWwlqxNxUSFdDYb+x4vYx9ASR5rFhtDOpunlbNXM4cKnvUICG83W3kYI63NNjhso/XbYPL8sCuE9FxoYvcj5fykzyAjP9k8j5vcPlz3/h5W/Lrvrb67YQnF03pfW//8EV/9qa3voG/ks/f2BLdBXsKcPzW5vk+7jbexkdqOly8Hr1RXUFS4mjdAAUpERERkEMHfthdh5oakCbScq6SmqpKaqlo6JySSbI4Z/LMiQbYg7UW+llDLbw8+ywf+fKDd5hZUEtjx7Uxa39/D4kf2sPiRjzhuTaB4czp3uX3kuxvmcVN7uXPMHl78s42U2+fxk7m9Y+56aB7Fk6p40Tlm8ftNmGbPY8c33G40N53f3W7i+Ouu+cqpM2Xy8Aa3MOVnTd5ZaTzsccn2LPdU1mLMuJ8fhDfTioiIiIw6wQ9PVyx8WnWaziuuCx10NHdDzKQQr26IeDCu4+EMA9WVG3ll0MFWWqye15pY8Yj7CpKN7x5uAtMNFLgFo59s3sPizU09r9/+aRV1GMm8yeh27SMWu68g/bqK41ZI+bxbMDpczVcfcd9W18T/92cbTJvKdwOsyVNtm833m5aN/LbJwJzcdSzwPUpERERkzAvjmacJRERA15XBR446GVvIX57fGw7rd3PwZ1v7DPE8Y+Q5JvbBMrLYzcFT2RQWpTivWql79es0nHW/k2ObXaz7pX7zlZC0/iFS3KZrLSvi9IEgfDdrOeVPP07XEG7lD/PqW7k3120J5HwFzz1lGXiMj7ELzJkYbRX8xtJ/KAC/LmexewjZsMfPKo3ETQM8V3E8mCabgAFCC8AkI3fBIGesTCTOHWw+z5ocIcvl7Z9+NOAcju17eXzdDB94/XktYu22O0ijjncf246/PykRERGR60lYwlPE+EiggyvXY3Ca/zKFRSl0lf+Ug66GC/NfJms+PWEl9sEyspLrOL3x67QCrgBUuH5q3yCSXEzh5HLKNz5AlysAlWyhtWdMCUnri4n1Es56OcNV/W4OPr3VrcYy8uMDbAox/2UKi2Kpe7WoJ8DFPlhG/votIQlQ2U8WUTTNQtnqjzkJgJll2/NYs+UMv3y8Bguu4AQVr5Y5G044xiT3C1mFLEg0gPVT/7br+emueEcgajk/wKC5RmIBa1u/pSw3JuJMwHnbgKEmdbIRaOq/3S7QmgZj+5hPbHnMMhYCOvskIiIi4k3oW5UbUkmMge7mxpCtVgyftWQVpUD97r6h5MADvas8GVtISYbWsgecwQlgK6fL6sA0g9gMt9v1WdUppfWMFUyxbtsdUzCZoKulzmdFUctuI5Y6TruHqwMPcLoeomYUBLB1soSkwhS6yn/RZ+WrdW85XZ51B0NBGnOnQf3eCmdwArCwa68FTFPJLnBciY81gvUzTh7qHXPqPDDJiLnPDacTa4TqpjeCV+PcdO6bbYTzVX061vVl5CffyMREEx96NoNw890N+aRg4/j7TT7H8I18iqeB9c9VHg0qAq3JHwc5bwVj4q0+tu7tY+tj/8yjWnUSERGRMSy04SnCzA1JMXCpEUt7d0inGhYZU4kCWk/5WgUCkmKJoo5mzy1zB07SiglTUiATbqWu3EpU/kMUbiqj8MG1/UZExZmg/qRbUHNoPVXnEcQG4whqPXO5/izPJyrguv2QHE0MFk55LoyVfkY9RmKTHS+bW219whSYmTkNOqot9NltZryBBILJ0ajBRBO7N/sOPN/d4Oi6V/e+Z0e+Xnc9NM8Zio77Djxz0/nd7QlgrWKnzxDmX00iIiIiEhyh27YXYeaG6YlE0kGj2pQHTU+L8fkvU1hUTOGm4pCeQwrt858CZ2m2AWbylheRt9x58XwFz233CBi2T2kiL0izJrDjBedK0eu+Q5GrFbn1zx/1a1Pu4nq2FOfL+7cpd+lpRd7Ebp/PnPKvpoAFeZujiIiIyPUkROEphjhXcKqqvQ636zmd/Ywu8omKLwF8BIyGVrrIJ34+tLqvPs3PJhYrdQ1DnPvAAxw8gDNEObbRNZyFrhYr5GcTC31Wn2JnpoC1PIC/izqsVoiNSxl8aDDUd9LBDGaWwEn3H2XJVJKxUVEPYGRRgZmOyo/Z4RmW+jlHqw3mJNwDlmvZumfkJ5tdIeUjnytFvatJXp7d5PKN/J7gtNjnSpHbalK/50kFVlNgCplmAlvjuWDcTEREROS6FIJte5FEJ6cSfb0HJ8B9G13WfLfLzoYRAJw9RLMVYoteduuQ5zor9aFHJ73ARcU7YlKX8z5d5WfoIoUs9y19818mKxlaDwayOlVKw8E6SC4mf1nJ4MNn3Mv6H21h049+wF0zAvsOAByycM4KyYvzyO65aGbZYjOcP+NsDuEQE+vPA4kO8kGjHRJuZOUQynFxbMMbJKQ4Q9GAwcm1DW/A4OQKRQMFJz9rCpTxVmYZocnmq1nEItZu+zHPb/se92cFaU4RERGRUeZzM3Pm/C2YNxw3KYvk+Ejvb3bUUmPpCOZ0AYubMoWO9nauXg3iRkJnx70eXrrhOTru9b723A4X+2AZWZP7br9ztDdv5fRGZ7MJz7bhANT1vt/Ds515/5bnnvX4vJ/ndwPv2wQXPsKmO1KBi1S+8kPePuP+prMjnrfpPLrkOTru9b7db5WpII0Vy2fQ/5HLFspWuzebAIzreKMwD85u556aIXSQ+0Y+e2/3cXLKWsWLG6p5u2f7nDeugGPkJ5sdZ6G8qXvf8dymni193rhCl181BW7l7Nf5mqmCZ30+TDiD+//Pd5gTDZ1Hf86Tv7jG1C8iIiIyCgU9PI10IQlPEiaOEBbdb9uer3blsCDtRdZlNPPbP/jzoNwxyryJd3LjOXrwYX440G7IL67m+S+nKDyJiIjImBX6VuUiwVJgJHqA6x2t/X/z/6DmNY7aUvnaFzdd0/a965ZxHW/kpmI7+9rAwYkM7r8tBajjgIKTiIiIjFFaeZLRpSSPNYvN/S7X7y3Dd1PAQn5QuJpZjUPcvncdWzn7dYqsA/9clqz5MUtTgc5ynv+Xt/hr+MoTERERGVEUnkRERERERPygbXsiIiIiIiJ+UHgSERERERHxg8KTiIiIiIiIHxSeRERERERE/KDwJCIiIiIi4geFJxERERERET8oPImIiIiIiPhB4UkknOa/TOGmMgrXbyEqnPOaN/HOFzexcqAxCf+Bdd37XE4IV1HXagIblt/MW1+bFPKZrpYcwXr7fSGfJ3Tu4/J3jtC27ght3/kP/nu4yxERERmlxgX/ljHEZaYS7X6po5YaS0fwp7reGFIpnZtO64l9PHhhuIsZxea/TGFRisdFK3Wvfp2Gs8NS0fAyruON3FSqK7/NKz4HfZ9L990Cx/+N8U1hrO2aTGByNNhqLoV8pnEfHoH7/gkrYHp/Z8jnC7arJf+EjSPEPPsP+hczERGRaxCC8NRBS1UlLT2vHWEqDQUoCae+YSlq2W/IX16GqayI0weGsawDD3AwrPPfw3OFeXB2O2ssvsbcx+XvfJWu2t8xeTQFA/ME4oHmltCHJ5r+AVPZr2grWsnlkztHUcAE+D5XUyGqTMFJRETkWoXh/5d20NHcDTGTwrtNScRN165fUGeF2Jlrh7uUsFo5u5h0WwUv1hz0Oea/b1+JLaaGiaX/GsbKrt28WbEYaefEiTBNWPlNJtZOxHZniLe9LVpH7jNPEZcZyklERERkKEKw8uTDpS6uhG2ycDGweW4BM5oOUWJL572ceOd1O+WHD7HB7jZ0So7b+0DzCb50shmAZakFrEoz9LxlylnEe70D2bP/BNt67mHse+9+W/38qal3zBvMdpvbbS5/TcnhvRzYs7+JWQtzcG2Ws9YcoqTW3mfoY9mLWOL2I6hz2574WPYiltD7M3G3LLWAVQmNvHS4ll2B1NZHKV1tD8HkqUQBXawla1MxlBVRF/8b8vNNrqo4vfEBWns+V0LS+odIMfXeqdVt9Spq2W/In3GG02dmkJVvAms55aWQtTyfKPd7eW4lrN/NwZ9t9VKno65Y90texsY+WEZWsveaet1DbgJUVz7LBz5/LvdxNX0iEcdf8fk/BvMW3Mijaa08/2o785bfyE2uPbl11Xzrt+1uIyfx9D+mM73n9SWOv/kXNvdZ8ZrABvd7AHR+yvOvNvKR26W//9rNLHX7cdkq/sLKD/quMKVNngCdrdR4rdpRS7zn53LSeev2SZx7/xjr3UKXP/OBY/texH23cDkXJlR6nfja7XuW6uytpK/ayoTda2nYF6J5REREJGChD08RZszxkXQ2WLga8smGhymtgPdoZs/+fWzDGQRyUlnm/GXfEY5sPe+7wst72Y6wsKv2ELtqCeqZp8Fqco1Z1XyCL+1vBuL52cIclmTHs81LgBlYPEsWGik/vI8H7a7vO5vNzX3DWr7NNZfruy7iZ+7f1WhgGfQLSCkmA9js1xCcAEqImgy0fUaX29XYojJireWUb3ycLmdQynpwrTOsOINM/W4OPu0ML/NfprCojPz4n1K+q9RxzZRPVtxuDr46lfzlM8gqaaVu427iNxWTsqyE1l2lbtv1nGHMR41J653zeQ1Wbp9v283Bjc4xGVvIX15GFh4Bynwj6dg5ahvgx5JwK5djYNwF39v10iZPgHYDd/7jDfD+Mb51AmcIuYEN5nZHOHILJd9yhpJ5C27k0bvT+ft/r+b/Aj3hqq6ab73a7mM255jOT3n+352BKiedt26/kadb3APPBJImAe2X+oSuXpdo64TpkycAvSFoXpzjdVtPoHOr6d+dNZkTeeVuz/mcmj5mfMctXJ5yHxC6LY7WF9Zy6u6nmFm8lbjs/VS+8E7I5hIRERH/hWjbXgxxmbmkZeaSNj2RyI5aWuyDf2rUslfzktuKTZ3VDoaJzl+Q41mSZqDuhPuKjp0N1c0Qn8Bjw1KTU7P7Sk8znzTTE2ACnKzPatiu5kasGIh1LWhNSSff0Mwe91Bmr+W/miElIb63PhdDKqULC9hsADCQYASrdaAEMLjYBx8ixWSlbq9HKKnfzcGnH3cGqlK62uhZnYpadhux1HHaPcgceIDT9RA1o8BtG6r7fU1wZrfbylUgUjCZoKulzveQ+cWkmDxqOvs4dfX9tyQuMMaDrYoPBgxPU7hCDeN8rqI4Q0rKJHjfS5gAYBJP91vNmcC8tAnQae9dGXKeUTp3xldwgr//mjM4ua9EnfiU450wfYZ7Vz1ns4g2X+edLtHQDkyawDy3q67Vqo8sbvN5rKA5tgO6Byx3O/m7driSfmvgW/cWrSP3ma3e/2xcxXiP4ZfffJLKlz7BnrLQ6/t+y82la8C/YxEREfFXiFae+jaNiDLnkpbZQWNVbZ9/9b9ueKyK9KwkARgMxOK5Fc/FToIBCEWwHKimMFtmNAIGlixcxBLPN+3O1SabjVXOcLcsPhETBmbEG8BZc6st0B+SiZTlZb1hsWd1qS/PoNL6syJcp4Ni40xQ/2G/INR6qg6KYp3b/wBa6ToLZDjv2VwKDOVs1Vbqym8jP/8hCvMf8rpdLyo+FjCRtams/8etU91qggyTof8YD/89ZQow0DKnI6RQV903OJ2o7llhIifWsVXv9pt563a3MZ7b+izt/LXzBm66/Wbeut3blr5J5KTAufcbfawmufGjWURN2yVIMZAGzvt53t/xGtJ56x/dP9nOuz2rZUG071kqA92CV/USZ574CknPLGTmM0/R8NKTtFT5+dncX9FWlAa1v2Pys6PrPJuIiMhIFZYzT12WWjpjUpk8KZKu9u5wTDni1I359uODnKeyX8RKoiNMmqD8RDUz0uNZVmvvXcEKyOhsTd616+sc3IVze2AxhZuKHcHvaffg53kuy7uzVjuYBh7zdxcG+Y/Sn9WiGZO8nlvq7xKbXz1Gz7mnu2/mLfegkhPLdC5xvN+KjyPAnTvquTrUzr4BmkV89EkrK/NiSTIDFpi34AbHqlaf0OctxPmh/dPwdK7LXMWMVbMwXPyEU5te4nIgn638JpMrcYSode9j3Hn7KOsSKCIiMvKEr2EE0H15DAYnu51WINZogAvX895F33bZbKzCOPAqm/PnBPHMMjay50IzpM/mlimNxGLnzDD86LparJCfTSz0CSqxM1PAWh7aVVTXGan5L1NYNIPYDGg4C13NrUAsURnAIMHwA1sz64yZLDDie+te0wUiuIWruXjf1mU2YOQSfw00XAzIFaIc541ycoABQtC8BTcwnXbe9RzjviXQG8slmpnAZDNgmcSdeXD8TT9WtQZ0H/89CSKqzwX+0UXryC1O8v6et3DkGl93jWeeKiuJKvoq/50AKDyJiIhckzD842kk0cmpRF9qpGNMZodm9tTYMaUV8LMpgwx1BgjXOaD+71/se5bI2WBikMWF4XehmnK7gfy5OQOc8bLRajcwIyed2KZmdmHnSBPkpycCNpqGIzyVn6GLFLIedNuCN/9lspKh9WD/LYCh4Nim59wWCHBgN3VWEynLX+7bkc8by1+oxsAsc6HvMU0fM74Duj7/fa9vuxosNAwQnv7vmXaIvoE7cwYryINz5afnbNGJVs4xgZtu7T3bNG/BjTyaN4Fz73vZRhft2JIHOJo8LE/sc77J1TQiPm4SG5anw/seK0xe5huUHw02fNr3LJVPrPX+xyM4mR7ZSm5xEi2716pZhIiIyAgS/JUnQyppSTF9LnU3n6ZmjG7XA8d5Iyhglee5p2bP1tzNPHi4mtK5Oby3sPdaz3Y3ey1v1CS63cfx3qyFgf7WGm52Nhw+xOa5Bf3OPfVuZ7TTZIP8eChvdiSlXc2N3JOWjsneyAAtFELn7OOUb3R03CvcVOy8aKXu1aKAtwNGLXNvhw6YXPd0216YsYX85fkez0Pz3KJXSsPTwPqH+p176t+u/A0qm4r5Wsb/ZGXNQV7xWtlOxlWvhJtu53LCv3ps63I2faj7dODzPyeqeT7uRh71PPPkvpXP2Y2vr3be/fe/uN27nfVvfsord7ufQfIc4/DRB59yZ146S//xZpb2jKv2WFVyNI24KS+dz1f8hZX9Vre8zef4nK+tfFdvu4UrHUcwhLL5wqJ1pKd0BXa+SURERMLiczNz5vxtuIsIp7gpU+hob+fq1eu1cbqIu3t47ovFJJzdzj0+H5R7H5e/80/Y2n/H5FH2oNywyv0VbUVTRuHZoe9zad1XoeyW0D2bSkREZIwIy5lnERkub7CmshZjxmreSPO1fW8n4//zCBGpX6WtxPv2vTEv4T+wFqURcfyVURacAM7xdx3QNfc/Am+vLiIiIn0oPIlc7ywb+UplLcaM/8lKX2Oa/gHTziNEpN7O5YRwFjc6XL3tFjj+b5jeD92DcUNnJ+N//juiYm6hY90R2r6jECUiIjJU2rYnIiIiIiLiB608iYiIiIiI+EHhSURERERExA8KT0MUN2UK48aF9RnDIiIiIiIyjBSeRERERERE/KDwJCIiIiIi4geFJxERERERET/o0I74VpLHmsXm3tfnK3juKUv45r//Mz5ZCqV3TWWj2+VNW45yx4U8Cp6OCF8tIpNFbI8AACAASURBVCIiIjLmhXjlKYa4zFzSMnOJM4R2JgmB0gqeW13Gc6s/psIa5rnnt3JoaQNn3+0bnAA2/mc6zKng0PorYS5KRERERMaykIancZMSiQ7lBHKdsvLuo9VwNI+lr3l5+0AsBe8mET2njh3zw16ciIiIiIxRoQtPEWbM8ZF0NtTSGbJJ5Hq0acspMi6m8+JA2/Jem0rpuTa+sLyVFeErTURERETGsJCdeYqanEjkpUYsdogJ1STXk5I81iyGstVnMG+5lTyT83q/c0ZGFrm/j42KVz9m3yEGGANYz/DLx2twv5N59a3cm2vsvRDwmSbnPO39P5f9ZBFF0yyUra7gpN91A1i5aTqcfTeWHYPMvvE/07nj0WqW3R/LDm8rVCxi7bY7SKOOdx/bzp4AvpmIiIiIiKfQhCdDKokx3bScs3BV0SkAZoq2m+mo/JjnttugII0Vy/NYVlLGrlLH+8u25xHteh8coWv5rUBvEMl+8lbyOMMvV/cNS+56w83HznDjuPeaLf1Dlm82TlbbyMudwaICi1sQMjNzGnRUnulz78HqBuD+i2QwmT/W+DH9gYn8ZTncmHgFUPMIEREREQmtEGzbiyQ6LgY6GunUef6A1e8tY4crYByy0QlExztWh8yrZ5BsPcP/c70PUHqGCquR6Te7VpCMmCcB7TbfAaggjbnToH6va1UIwMKuvRYwTSW7wP96LdvPUI/7/EDJVJKxce6YLYC6HVYk2uHiZA4c8Gf2CM63QHTWRR9b9/ax9bF/5lGtOomIiIhIEAR95WncpOnETeigsb4j2LceA2y01ru/trBrdVnPq/hYI5hmcO/2Gf0/GmsEbICNfYcs5C3OY812vG7XIzmaGCwcLvW4R+ln1C/OIzYZ6LedzhcLp85DUboZM455srPMcL6iZ0XJv7od0qe0AZP9nVxEREREJGyCHJ5iiImPpLv5HF3BvbG4eAtDnkoreK4U57Y/V2hxP38UXCf/cIa5y6eSXVCD5ZBjy179Xo8K/akbqL4wGeICLKBl/KDno0RERERErlVwt+0ZJhENRMZnkeZ8vlNaZirRQHSSnvd0rZpbbWCKJt7fDxyqYcfqMp579QwdmJlZ4rxe39n3tYtzu13f1S9/5rFwzrUFr2QqydYzfOi2qhVI3TsaDTCxjfl+tSC/wrQ46LwQGWDBIiIiIiKBC254stdSU1Xp8cfRqryzwfG6xR7UGccUx/kiM0Vb0jAH8sHkaGLcQ9EhC+eskLw4j+yeQWaWLTbD+TNeOuANxtE4IibdzKIsMx3Vlj4rTAHV/dpEztLGjYV+HJibf5EbJ0Jzo69mEYtYu+3HPL/te9yf5d83ERERERHxJWStyiUULOxaXcGy7Xke54fc2347Otsl9/mcZ1twG/seL8PyZBFF24socl7tcO+Gh5dW5ibnOSovbcYt289Qvz2PPJOFsqfcGkP4XXfPJBw/ByVzLrCJqWwc4Kex6c5qoi+m86LXNuUAdbR0Qlr0RD4/JwNOnx3gbiIiIiIiA/vczJw5fxvuIsIpbsoUOtrbuXr16oi4j3hj5d23TxF/NI8CXw/Kvf8zPllq54/PZ7BioM58X1zN819OofPoz3nyFwpPIiIiIjJ0IWhVLnKtTCx9N4noORUcWu9l+978Vg4tbaDzaMrAwYkM7r8tBajjgIKTiIiIiFwjbduTkem1qcwCPlnaf/vepjurYaBVKWDJmh+zNBXoLOf5x97ir6GuV0RERESue9q2N8z3ERERERGR0UHb9kRERERERPyg8CQiIiIiIuIHhScRERERERE/qGHEELVcuDDcJYiIiIiISBhp5UlERERERMQPCk8iIiIiIiJ+UHgSERERERHxg8LTNbpacoS2dUdoW/crfD/xqZAfFL7Oc+YwFiYiIiIiIkEVgofkxhCXmUq05+VLjdTXWwYIGOERqofbXi05wsVJR4j5+T94T6TmTbyTm0p15bdZYwnq1CIiIiIiEgYhW3nqbKikpsrtzwgITqE07sMjRMTM5GqCjwGWjTx71k567iZWhrUyEREREREJBm3bC6MPal7jqC2Vr82+Z7hLERERERGRACk8hdVBfni2FhIW8AOjjyFfXM3z237M82sWhbUyEREREREZWMgekhudlNt77mmEnHcaESx/oZpiYo2AbbiLERERERERf4UgPHXQUlVJS8/rSKKTs0jOjKKxqpau4E84MjR9zPiOW7Dd9n3Gl/7rAAPP0WqDOQn3gOWN/m//YTuP/iFkVYqIiIiIyBCFYdteN52NjXQTg8EQ+tmGz07G//wWYlpvp23dEay33zfcBYmIiIiISBCFbNueN5HjI8HeHc4pw+j7XFr3Va4e/zcmP7tz0NE267kw1CQiIiIiIsESnoYREVFE0o3Vdr0GJyDhBq5ykfEnBwtO04k1QpPtYFjKEhERERGR4Aj9ylOEmRuSYqCjls4rIZ9t5DPfSDp2jvpqFvHF1Tz/5RToLOf5f3mLv4a1OBERERER8SX44SnCzA3TE4nsudBNy7lKPlVwAgr5QUYqNO3mh77CU30rnaQQHZ1BYRb89XRYCxQRERERER+CH56uWPi0yhL0214PFqTdzxxjLb896KXLnsvptzhQm8/S1PDVJSIiIiIig9NDcoPkv7NncoUL/F2TjwHmTazLMFBduZFXBrpR1reYnwrUHuQ1rTqJiIiIiIwYYe22dz26WnKEi6kAFzHu/KaPH6hju1515bdZ43NRbhFrt91BGtB59Oc8+ouzoSlYRERERESG5HMzc+b8bbiLCKe4KVPoaG/n6tWrw12KiIiIiIiMItq2JyIiIiIi4geFJxERERERET8oPImIiIiIiPhhzDWMaLlwYbhLEBERERGRUUgrTyIiIiIiIn5QeBIREREREfGDwpOIiIiIiIgfxtyZJwDmt3Lo0Wqigc6jeRQ8HTHcFYmIiIiIyAgXwofkRhKdnEXcBNfrDhqraukKzWRD4wxRze/OYelrw12MiIiIiIiMZKFZeYowc8P0RGg+TU19d0imCIoDsfz+zmpKcqyAabirERERERGRESwEZ55iiHMGp0/bR3BwEhERERERCUDww5NhEtF00KbgJCIiIiIi15Ggb9sbN34CXGqDSVmkxUf2XO9sqKTFHuzZREREREREwiPoK08R4yNhQiKTOUdNVaXjT0MH0Um5xBmCPdu123giCaY3sWP+cFciIiIiIiIjWWie83SpEYv7tj17Iy2XINoUE5LprslrU5l1VwLxjx7lk7c/Y9Nw1yMiIiIiIiNSmJ7z1M2VbiAyknHA1fBM6pcV68/yxBwDpXfNYelwFyMiIiIiIiNW0FeeuqwdMCGKvo+djSQiEujuHlHBCSB9Shucm8jG4S5ERERERERGtOBv27O300kMiebeLXrjJk0nbkI3LW0dQZ9OREREREQkHEKwba+DlqpayEwlLab3WmNVLV3Bn0xERERERCQsQnTmqYOWqkpaQnNzERERERGRsAtNt71Rw8pN06HzQuTgQ0VEREREZEwLU7e9EWZ+K4cerSYa4NxMZj0dMdgnRERERERkjPvczJw5fxvuIkREREREREa6Mb5tT0RERERExD8KTyIiIiIiIn5QeBIREREREfGDwpOIiIiIiIgfFJ5ERERERET8oPAkIiIiIiLiB4UnERERERERPyg8iYiIiIiI+GFcsG8YZc4lMcbHmx211Fg6gj3l0CVu5pU5aWA9zs/2b+aPw12PiIiIiIiMWEEPT12WSmosnldjiMtMJfLypWBPN0R/z/9eupSUz45TaYXc4S5HRERERERGvLBs2xs3KZFoOmhr7w7HdIOYx5qFS+Hot1j5p4+GuxgRERERERklgr7y1F8MMfGRdDefoyv0k/nhI57bH0hoWsTabXeQRh3vPradPSGrS0RERERERrKQrzw5Vp26sdpGwqqTiIiIiIjI0IR45SkSw8RI6Kil80poZwqdfWx9bN9wFyEiIiIiIsMstCtPhkTiJnTT0jaCOuyJiIiIiIgMQQjDUyTRcTHQ0TiKV51EREREREQcQheeDInETYBOq1adRERERERk9AvRmSfnqtOlRjrsoZkhfFzd9i5y9MUf8drp4a5HRERERESGQ2jCk2vVqcHC1ZBMcG2+kPkKD2YZ3a7cxINL3+JBoO7ot/jfje6j62jphLToiXx+TgacPhveYkVEREREZEQITXiy11JTFZI7B8Ufq1byR7/rO8trH9Yx58spoSxJRERERERGuJA/52n0y+D+21KAOg78QqtOIiIiIiJjVYif8zS6LVnzY5amAp3lPP/YW/x1uAsSEREREZFh87mZOXP+NtxFiIiIiIiIjHTaticiIiIiIuIHhScRERERERE/KDyJiIiIiIj4QQ0jRMag5feV+DXu1Z2lIa5EREREZPRQeBIZo37+qzcGfP8737wnTJWIiIiIjA7aticiIiIiIuIHhScRERERERE/aNvede1m4jbeR9LE3istu9fSsG/4Khpcb80jq1Yji7bcSp6p90r93jJ2hfRI0BV2vFLBjafzKHg6ovfy/FYOPdrN7++aysZgTTWvjT+triMa6DyWzf94Vv/TICIiIuIpRL8hxRCXmUq025XOhkpa7KGZTbwzPXIfSXzCqSde4vJwFwOYHtlK+uRPOLVpZNQTiOwnbyWPM/xydQ2WMM25aUsFXyCdZ9yDE8CBWH5/51FK3gaCEqBsvLe6Do5lk6nQJCIiIuJTCH5TcgSnyObT1LR3Oy4ZUklLygUFqDD6CjEp0LJ7tAWVY7RsOkbLcJfRh5mZ06B+b/iC04r1ZymZnkTpXbHs8PL+xsfzmPZKBSVbJrLxcZOXEQG4z0oGibyt4CQiIiIyoOCfeTJMIpoO2lzBCcDeTicQOT4y6NOJD5kJRA13DdeLAmOfVdSQm9/Kw3PaOPvuQKtKEax4NZ3O6ad49/4w1iYiIiIyhoXon5onEBEBXVecLyMiiQS6L3cP9KHwmpLDeznxbhea2bP/BNv6DIrnZwtzSHG/1HyCL51sBgxsnltAPtW8dLiWXW5DlqUWsCrN5ryfY9yMpkO8wWxWpRkGmA8ey17Ekp6y7JQfPsSGoK/WOc8Vte2n8oV3eq56bqszPbKVdPZTeTKT3OIk56guGl56kpYqj1suWuc2BuzHdnLmzWPAV0h6ZiFxPe/MYuYzW72M8zyf5WMeYPzdTzHzZrdoWOfle/hbd5CYV9/KvbnG3gvnK3juKY91qpI81iw29762nuGXj/dfzVpR2Eb0xXRefG2QSQ/E8vs7qylZ0MqK17yvUImIiIhI8AQ/PNkbabmURdz0XCIaKmmxxxA3PZHIS41YRsqWPUMqpQlNfGn/CdcFNs8tYMncVOp6gpCBzXNzSOkJS57sbKhu5r2cRG4x1LKr57sZuCXBgLXmz32CkSmtgFXNJ/jS/mZcoWxJdjzbeu7tDGMG91BlYHN2KstO9g1nvvVvEGEo3kpcsfPFxSGcN0pZSO7kTzj1xLNcdt3/7lVcdLuPK8y4N3gYf/c64jKP0VL1Dg1PvEMDg515ctuut2gducWxXssxPbKV9JQGqp94FivgCme5GxP63tePugfWv0FEzOIi1ix2vnALPtlPFlE0zULZ6o85CYCZZdvzWLOld4wjXEHFq2XsO9R7/3u3R1O2usL5OYArzM9qg5YEv8LQxhNJlCztJt2v7yQiIiIi1yIEK0/ddNZXYp+URXJSLtFAt/v5p5HAXkvJyT4XONJkJz9totsqk5FYA1ibbL7vc6GJOnLIT4sHVwiakk6+wU55s0dS7BPCmvmkGVKMBpYBu4BlqbMdnzvsvhplZ8PJ2gC+mFsAyVzFjFWz6LrWjnV9AtcxLlYtg5ujGQ+Oa5mrSLk5CvuxnX3mufzms8E/t5S5isQUaNntCk4A79CwO5O44ulMzKR3ZWmwugdlY9/jZewDKEhjxfIZdHrrrleQxtxpUL/XPQBZ2LXXwprFU8kuqMFyyMxtuUY6Kj92Bifn/UvPMH35DGaWwMme+3YTPxHOfuDnOaaaSDqp5qb7p8JgK1U+/OjGRqidwfeG9nERERGRMSMEz3mKJDo5l+T4SzRWVVJzrhHis0jLTB1RZ3Aey17Eewt7//Rup3NpZk+NHVNagWNMdryXuzjGEJ/AY677JsRDc3XAW+1STAawN3JkpKzO+WtaNAa6aPvTsTDN1UCHZxjcV0ULUUyYFvoS+kmOJgYLpzxDVeln1GMkNhnnmSkb5455BPFDFs5ZITrebbvf/Mt4+y8tFH70owqqflHBzX/JI/N7xsE/ICIiIjLGBT08jZs0nbgJHTRW1dIFcMXCp1W1dBJDojkm2NMNieNckZ3yw/v40n7Hn5dq+qeWXbWHHO+faIb4HEeImpvKMvcxzY1YiWfWFIB4ZsXbKa/xts1PxA8HxhP4fz2Taa4JfKrvfS+PzP+Vx7EbK6h6sY0HAr+FiIiIyJgS9PAUMT4SLnVxpc/VS1y5FOyZhspAgpHAVocunOgNUYZEbnFfpLLX8l/NkJIQD1MSSBnCqhNAndUOhol9m1OMBuc7sYdr1ed8J3aSiFnkcX1RJnF0cel8GGrwVN9JB2ZmlnhcL5lKMjZa64FDNjoxMv1mj9WdAjPTTdDZ7L4iFUnzRcjIseKXtG6iMXD+wNC/wvf+kggTL5Mx9FuIiIiIjAlBD09d1g6YkIh5kltbckMicROg09oR7OmGwE6TDXCeNwJXdzzPbXv9LTMaARtNHuFoW5NzZSonnrqmoa067aqtpo54lvRZ2XI2jBjSHQdyjO42YHIC451XHI0YhnCrqpdorIO44qeIy+y97GgY0Xfo5QtdMNFxNmlIqv5E20WIK15H74mgr5BUnAR1h0LWSW9Azq13yYvzyO65aGbZYjOcP+M842Th1HmIyc1jUYFrjJFFJTOIsZ7hwz5b/iI4cHoyTL/IJj+m35TTABcjqQ7W9xERERERn0LQba+WmoZU0pKySHM7vNE5gh6Qu+3kCWYtzGHVwnRWAdireenERFbluA0ypFI6N52+x/a9txfnQjXl9njyqWbPhaFW1cyD+w+xeW5Bb13OVuX+ddoLjPWF/bQ8s7Cnbbj92E5OXVjGzCEEG+sLazl191PMXLUVV2Nw+7GdnPEIM5fffJLqKVtJ9xzntaU5JLnG9bQidzTE6H5kK+ke7c4r3wzDmSuvHI0lLE8WUbS9iCLn1Y7Kj3lue++K0smnymhefSv3Li8ib7nzord25sCOg5N5eE41d6yfwsanI3xPPb+VO6bD2XfVplxEREQkHD43M2fO34a7iNGv91lOJbUjJCHKqLZi/VmemGOg9C5fD8q9wo5XKvhCy0xmPe5nZz43y+8r4ee/esPx4r4mqorh7f+V0Kfj3ne+eQ+v7vTshCEiIiIydoWg297Y81i242G5byg4SZDseDqFP15soOTtz7xu39u0pYIvTEyidAjBqZ9z4+mkkSXrrl77vURERESuYwpPQxbPz5xtzpcYq3npsL8PshXxRwQrVubxx4sN3LG+b/sVx3a9pAFWpQL00WT+x+5Eom8+SdUvKviTQpSIiIiIVyF4SO5Y0cyD+6/l6bMig4lgxco5/S8fiKXgGrrrebUzgcydCUG+qYiIiMj1RStPIiIiIiIiftDKk8gY9Z1v3jPcJYiIiIiMKmOu2970lGl82mjh8uXLw12KiIiIiIiMItq2JyIiIiIi4geFJxERERERET8oPImIiIiIiPhBDSPGqKhlvyE/v/cBq13lP6V8V2mIZjOyaMut5PVMZ6Pi1Y/ZdyhE0/VTyA8KVzOrcTv31BzsuXrXQ/N4eLYR658/4qvHE/jdtzMxWat4cUM1b4ertFCZm+72fZoo2DyPm0w2jr/+Ed893Dts5ezXKbL2/bmIiIiIiHchWnmKIS4zlzTXn2SzUtoI07Xr6xzcWMTBjbtpDflsNvY9XsZzq8t4bq8l5LN5Wjl7NXOo4EWPgPB2sxWA1mYbHLYN8HMw8pPNS9j7whJ2fMP3PHc9NI+9Lyxh74YBnpf0jXzHmM3p3OVzUAI7XljC3hfm8ZO5Q6zJ9X3abbyNjcZ273d5pboCMlbzRlqh75pFREREBAhFeIowc0NmKjRUUlNVSU3VaVpIJFkBSobBgrQX+VpCLb89+Cwf+POBdlufVSdHILoJapp8f2ZuOr97YQn38Sl1Pgc5A9HnOzlu9X2r725Ywt4XptLyZ5vPMX7V5JWVxsMel2zPck9lLcaM+/mBMcDbiYiIiIwxQQ9PUZMTieyopcXuutJNZ2Mj3RMSiTEEezaRARjX8XCGgerKjbwy6GArLZ6h5hv5PJz2KS8+8hHfbfb1uQR2fPsGql7fw1d/6ivwGPnJ5nx4fw+LN/sOPHc9NI9iyln8SDk+dzT6VVN/tW2+wxiWjfy2ycCc3HUs8P+WIiIiImNOkBeDIomIBLo9Ll/pphuIHB8Jds83rwMZW8hfnk+U63X9bg7+bGufIZ5njDzHxD5YRha7OXgqm8KiFOdVK3Wvfp2Gs+53WkvWpmJi3S/1m6+EpPUPkeI2XWtZEacPBOG7Wcspf/pxuoZwK3+YV9/KvbluSyDnK3juKcvAY3yMXWDOxGir4De+dgr+upzFv3a9sPHdDXsGeN+XJlY8MtgKkJd7e/H2Tz8a/KyVXzW56uqdc7B7v1JdQVFhHl83wwdef16LWLvtDtKo493HtjP4txERERG5/oRpJ90lrlyCyPBMFl7zX6awKIWu8p9y0NVwYf7LZM2nJ6zEPlhGVnIdpzd+3XmuxhGACtdP7RtEkospnFxO+cYH6HIFoJIttPaMKSFpfTGxXsJZL2e4qt/Nwae3utVYRn58gE0h5r9MYVEsda8W9QS42AfLyF+/JSQBKvvJIoqmWShb/TEnATCzbHsea7ac4ZeP12DBFZyg4tUyZ8MJx5jkfiGrkAWJBrB+6t92vbHO9jGf2PKYZSwE1DxCRERExJsgb9vrxn6xG2ISiY7ovTpu0nTiJgR3ppFhLVlFKVC/u28oOfBA7ypPxhZSkqG17AG3hgRbOV1WB6YZxGa43a7Pqk4prWesYIrtXfUhBZMJulp8n6yJWnYbsdRx2j1cHXiA0/UQNaPA7V6DKSGpMIWu8l/0Wflq3VtOl2fdwVCQxtxpUL+3whmcACzs2msB01SyCxxX4mONYP2Mk4d6x5w6D0wyYu5zw+nEGqG66Y0gF3q9Osh5KxgTb/WxdW8fWx/7Zx7VqpOIiIiMYUFfebrafpp6skienkuc81p3cy0tl1IxDfjJUShjKlFA6ylfq0BAUixR1FHnuWXuwElai4oxJQFnvX3Qm63Uld9Gfv5DFOY/5H17YJwJ6j/s1zmu9VQdFDmCmH8rRo6gFuWay0NgdfshOZoYLBz2XBgr/Yz6xXnEJgOHoLnVBtOmkl1Qg8W58jRzGnRUWuiz28x4AwlAoC0VRERERER8Ccm2vavtp6np0xo5hrh46G65Ds87hVnXrq9zcBfOLXXFFG4qDuk5pNA+/ylwlmYbYCZveRF5y50Xz1fw3HaPhgi2T2kiL9zljX7a5igiIiLiU1jOPI2blEj0pUbq7YOPHVXOfkYX+UTFlwA+AkZDK13kEz8fWt1Xn+ZnE4uVuoYhzn3gAQ4ewBmiHNvoGs5CV4sV8rOJhT6rT7EzU8BaHkDAqsNqhdi4lMGHBkN9Jx3MYGYJnHT/UZZMJRkbFfUARhYVmOmo/JgdnmGpn3O02mBOwj1g0da9wRUyzQS2xnPDXYiIiIjIiBWih+T2ijLnkhwPLY0WroZ6srDbSl25laj8h8ia73bZ2TACgLOHaLZCbNHLbh3yXGelPvTopBe4qHhHTOpy3qer/AxdpJD14Nq+9SRD68FAVqdKaThYB8nF5C8rGXz4jHtZ/6MtbPrRD7hrRmDfAYBDFs5ZIXlxHtk9F80sW2yG82eczSEcYmL9eSDRQT5otEPCjawcQjljjvFWZhmhyearWcQi1m77Mc9v+x73Z4W1MhEREZER43Mzc+b8Lah3jDBzw/TE3s56HbXUWDqCOsW1mJ4yjU8bLVy+fDl4N3V23Ovh5SySo+Ne72vP7XCxD5aRNbnv9jtHe/NWTm90NpvwbBsOQF3v+z0825n3b3nuWY/P+3l+N/C+TXDhI2y6IxW4SOUrP+TtM+5vOjvieZvOo0ueo+Ne79v9VpkK0lixfAYx/W5koWy1e7MJwLiONwrz4Ox27qkZSge5BHa8kI/XtTdrFS9uqOZtHA+2LZ7mbZCN469/xHcPO57h9PBs76Gv7v09rPg1joftfjvT+9nA8+XOZ0T5V1OgVs5+na+ZKnjW58OEM7j//3yHOdHQefTnPPmLYB54ExERERkdgh+eRriQhCcJE0cIi+63bc9Xu3JYkPYi6zKa+e0f/HlQ7hhl3sQ7ufEcPfgwPxxoN+QXV/P8l1MUnkRERGTMCvm2PZGgKTASPcD1jtb+v/l/UPMaR22pfO2Lm7R9zxvjOt7ITcV29rWBgxMZ3H9bClDHAQUnERERGaO08iSjS0keaxab+12u31uG76aAhfygcDWzGoe6fe/6tXL26xRZB/65LFnzY5amAp3lPP8vb/HX8JUnIiIiMqIoPImIiIiIiPhB2/ZERERERET8oPAkIiIiIiLiB4UnERERERERPyg8iYiIiIiI+EHhSUalBYuLR8R84a4j2HMvWFw86J/hNNT5R+Lfl4iIiIx+44a7ABF/ef7iu2BxMR/s3T3ouEB4u18weNbqT42hqiWQefyp09+fd7i+j4iIiEioKDzJiOTtF3J/f/n2Nc5X2PKnlmv9xf+Dvbv73MfzfoHOEYyagmmwWvwNWN6+V6D/LYy0n42IiIhcPxSegi6B7MU3Q+VuTjb7HjVldjHZHOODPzcNaZZr/XzwOb73FKzUHPyQOvu133Ek/ALs+sXd8xf4gVaR8LMALAAAIABJREFUwlV3sFavRvpWtkBDpfv/9XaP4fr7EhERkdFvaOHJkEpaUgxcaqS+3sLVfgMiiU7OIm6C63UHjVW1dA29zlHDkPZ5ptj+ypEBghOGDNLMVmoOjpTgEx5TZheTbfwrR/54liBkq4Bcy2qEr5UQf1dJBruPt9fBWFkJxna6QFaMRopg/X2JiIiIeAowPMUQl5lKdEcjLZdiiPM6xhmcumupqe8AIMqcS2Jm6hgIUCamJJiwNzUNGA4MCTdgsH3KhXAniJBq4mSQ/wU/kF9s/Tn7FEiwCQfXnIGchxqpW9L8rWmk1i8iIiLijwDCUyTRyanQUEmNPZLo5ETvN5w0nbgJHTQ6gxNAl6WWzphUJk+KpKu9+1prHrniP0+asYmTNdYBBiWQlm7iQmX4V19Gm2D8kj1QQHF/L1CBhAB/V5QCmdNXzUM90zWcBgu5wQi9Cm0iIiISDAGEp2466ysHHRUxPhI6GvuuMBkmEQ0wMYZx7d62+V0fpiQmgOUYFwYaFJ/EFJoGPA917UykfOE20oy9V+zVH3LEGeoGOi9lSLuNWxI+7d1aF38zC3IT3EY0cXKv+3d0nXXy9/3Pc8viz3utazTxFcoGG+vib2Bwv7fnPMHYghasgBqqDofBCj2B/H2JiIiI+BLkhhGRRERC98VLvRNMyiJ5YhuNzRNIjI8iAq7P8GTIIM0MFyoHOsdkIiXDj4B1jabMvgkqd/OBa2kr/mYW5N5GttWtiYXRhIH+2wsNJhPYrI7rhgxuSWzgg73Heuv/wm1kfyHD7dxS73Y9Q9pt3JLuWU3v+8N55gmC/8wg6N9Fz1/D+Qt8KILOSAokofj7EhEREYGgh6cJREwALjpeRZlzScRx9mncpMnBnWqEcZxj+uvAK0qGBBKMVmoGDFj/P3v3Ht1Weef7/805SS3LwnJ8kZwE25Edx4CJ44SkxLRJBtKU4w6dOS3hzPTyK1BmcVmrPQsoPXCGH7PmTE5n2gWlrGnXArqGQjvtdH5D2pnOYZrTpmlXCNMAobmYppAEW7GNE0u+xHIkWSJ0+P0hyd6Sddm6Wk4+r7WywFuP9n60tSXt736+z3fnb/yNA/ELxkYYxxkJjMb8BP1+iI1KWdvY1LMCz8EDDAVtWKsg6AlEHgv2c+gN44r8jHv8uFrtWKEkAVCmE/1sToKzvc9Sqm0sdJpbvoo10pPuvluFTK/L1OZie79ERESkfBQ4eApxIQQVWKhu6sB2/gRu4xyn0AwXCrvBMhGZxxQcSF8oor5tDdbAyTwKRTjp3L4Sz+xIUGzZGs4by4Nb29jUswZrwrNjDwf9AYgGQDhXYMWG02ljyB17fC6Nrn5tL52OxH4Ecn0BOUl336ZykE+wUeh15tKHxTQKU6h7bomIiIjkosDBU5gLYahoaCE80scZQ5Cw9AMVhd1UOYnNY8pQKMLpIM9CER483g10rnVyPLqkfu0G6gMncScGTl7jnKbIvKPZYCrgI8gKrFbABu6+kzjbnFjdfi43zJOKBE7x921KnppXWMU6oS+XYMvITJXAVIr1eszelDZZu1R9MnNvpUzv+2IL9EREROTiU/Cb5F54NwyECMZFCHasdgiP+S7K+U6lLBQx/sZhxrdvwBXwQ9UGOvFwfJ8hIKuyY8WPuz9NamAwOqcJJ86qM7jHPNC2nvqGM1jxE8nai6Tw4T1ZkBveloNc0/YKrdBFEIzrLQSzfUu2/VzT9lK1MRajUOAkIiIiC63gwdN7U6NMN7TQ6LDj9sbu89RCNT5GL8Yy5aZueBspFBEcOFCAQhEejh88yaaeNYAf98GEoC3gI4gzMoIUBGO1u7kYKMD5gA1n1xrwHCGIn3EPbGpbQZBANPD1EwwQV1giMupkI9e0vaDfD44V1Fv7UwZk5Ti6UMhAq1iBU6plZvpSiD7lu450I1u5vC4RERGRYsgqeFpS00FTgzH9rpGm9sj9nqZH+pgIAviYODUI7S247NFmoVGGT12cJcpN3fA2WijC4ylQSe5gP4f67GyyJRkVCvZzfGAFm7p62RZdNN53AHfbFuYKjkcCI6sD3NE+BT1nCLauwRo4MxtkxUa5ZkuLB05GtttlfG2J86tsdEZPXhPLkAfdBzhu66WzpxdXbJmhTbqRi1xlUx48lUwjPNkEIcUuZmC2L8bH8w2gChnwFuKeWIV8v0RERESMLrvymo3vL3QnSmlV8xWcGfXy7rvvFmBt0blEGe5VtNAluhezdCe4hZojs1AjL4WoTpdLX/IJUs2m6mXbn1TrLxYFTiIiIpILBU/5aNjAti4SbgqbKBJg0benyDfGFRERERGRYlLwJCIiIiIiYsJ/WugOiIiIiIiILAYKnkRERERERExQ8CQiIiIiImKCgicRERERERETCn6T3MXg8upl/P4/Lqk6GSIiIiIikieNPImIZGHd+msXxTrzkWt/kj1voV9bqu0vdL8uZoXct8Z1ZbvefPuR+Px8ju907Ur9ui6W9RbLuvXXZvyXyzoL1bdCPze2PJt1F+L1FPK7udTH2CU58iQiUiipvrSPHflNyvapHsumXTY/Fma2VyzHjvzG9GsG868r075J9ng2/UjW3kzf0r3vZhX7/crlRKMUfSr0NrI99lJJdhwUoq+JgeFCvO+5bDPT8VPq75tiHM+F+u4ttEId0/ms2xhsxZ6Tbp2lVor+KHgSEclT4hdypi/vQvz4FSo4yPaxXIOgxL9TrcfMD7eZE59CnPAmW0+6dWZ7UpmsT6U4Mcsl8DTLeEKVzXqKdVKY63qLdYJq9nOQ6fm5fj6zvRhgZh0LeXEG8r9QVWyF7keuAa+Z55m9+JPYLtXvUSmk+44uFgVPi1I1X+9qYiVhfnvibf53uDhbaf/COj5kH+Vfv+JhsjibSK/mfr7XCnsOf4MfGhZ/yvU420I/4J6zRxaiV9hd17KKfo65p/JqUzZq2ljnqoHQGU68eZZQUTZiwXlVJ42hhdsnyd+TSL8qz/6G0yXsVqYTulL96Bdz+8U68TS73lx+3MvhRGsxM74/+QZDqdL1Yv9fzPeqUKPDydrlE7yke+35jqoWWrkELrkqZOqy2fUV4kJKPsetcXvpvj/LKQ1zoY6z3IKn//Y/+M5HrgD/7/j2A0/zStJG/5W//PaNNDND33ce4snkjaRI7m7p5AaLl++fGOPFhe5MLix38nTrSgYHHowLnAB+ePZNtl39GZ6G0gdQluU01oQYfTPNmbaZNovKwgc++bI0drKqZorTRxL7H8Jzdop1rmtZ5U4eQKWb57DQAUIht5lpmdkrksZ9k2pkJVPQlmpEJ7Ys3ehGpteS7ahUppOMUpzMl0q+wU6yE65cA97E9zrf/pmVanupRnzSnXCWsl8LmR5Vqn2QjXyPlVzT9rL5vsu1D4UKlEudNpq4TePfiel/Zo6pUn83GGUZPEUDouHf0eeHrhSt/uTRv+Wmpnfo65uhOVUjycM0X+o7vtCdKKKPs+vqq+DsD3g02bl66FnuGbif77V+ki+dO8LXizNUkpSlphZLaBJfmm2aaVNWpvo5tjCDeKVR00bHchh9sx9fssen+jlxtpMOVxv2I/PbFCvVKte0tWIpxMlCsvSJXH7g0qXLZVpHqgCrkD+uuf5gmwlSF5tMJ+/Gk6KFOsHP5v1P1ibTSE+mCwKFkOxzlapvmRTjsxBb70LJ5rO10AFeKU/00wW42XyPpQt6kj2eSqbfi8Tl2QSqpZRF8LSR+564EX7x3/n8P23kvieuTtpq8xe+xk38ks/f9S9s/sLXUgZYIql8yrWNltCbPJVuVGnqG+w59zi9rXfS87tnOViSntXQuNyCz50utc1MGymdGla5agidPY4nzRsSGu1ndFknq1w1aUfXzP4Y55K6keyxXPLIy+HHJt3VebNXqbMdIUrcXr6jIMW4ml6sQLwQsr0Knc3JU7pRknJNnTQTpC/kKHE+I0+F6Hs5puWZGa00+/kqxOewHPZRNt+f6T6LZoKehWI22IopRH+zCJ5e58kHXs/Y6pVvPZQije9iVcH/27GaayrmlgQ8b3OnJzIR6e6WTm5gmD8dnJ73zJudq/lsjW8utc7exD+2VBtaTPOrvmGemf07NtfJ7OMOPtvl4LNJ+mWaL8Tkx1Zx+4fs0QUh3tp9glfi4ho7N31lFcsNS87++zF+9tPYXxY2P9LBFUMn2D3RmGFdH+fqZTA4kDkgiqTvXcXHauBg0vPdD3LXox+iibP8Ytc/st/cK06tpg47U+nnxphpk34jrFrfht2wxDebThZ5jKTpZZHUuppzxzkxGokSLI2ddCy3zDVJnNMUm+sUM5WQlmdZTsdVK5hdg6WNdeuT9cu80EwooV9TnDaO9tS0sc4Fp4+MYLmqk8bZZokpg+n2k7FZ9P0YzRTKRtL3Gl0rcVqm0gZakPuPYr6jFJnWkW/aVaEUKnUlWQCUSaYUPLMjEal+jDP9vRgZ9wmYO7nO5b3JNKpjJjWuFCliqbZnlM2xuG596vLW2V40SQwKyiF972JTiH1Ybt8LmYLIbC5MFbtv2T7XqJBpk+moYESe7m5pgtPH+dNYTGJv4h9bVvP10HG+FDsjtFRwM8ybe7TSUgGhcGR5RQPP1vj4077h6KORoOyGjgZGZuctzaXr3exczWedib2Ze7xgc56Wr+J2+yj/+shpJokWkfiYk5NHYkUkLGx+ZBkDjxzjZ9Gn1P4/HfzRhzrYfDY+MLJd2cHt+Pj3R45xKum6gJrVtDDDMTPDNqHDnApdRXvlepgqdt6ZBefyGphKkfpluk2GbVxVx7kjv+F0bEljJx2uTpxvzo2cVFgsMG9cy0KlBcKh6PKaNlro59iRWLtIsNHhmpkLQmbT9aJzmhK7EzrLiSNnKeScJ8vyTjqm+jl2ZGp2vfNHe2pYtT4yWnRsNBQN4tpYVRMLjsztJwD7skghDFOXDKYm8NFGZbLdS3HTwMpBrml7ydoWar/kMvKUqX2+P66F2k/lItXrX8hjPNV7mEuapDFFyeyIWiFSDc1cnc9lhC+VZMF+NiNn2XyvJWu72L8P8/nspvpOSXUxINmybNM+zQbdxv6kapvL92w2oz1mL/jl+vleiO9dBU95embw7fgFPh8jVFNjqQBfmJFQmNlL9xUNPNthx33ibf53uIIGCwSmoqd14THuHDSuKMzRqTDXOC2GkaQFEIyvtnfq30dZt7OGNes90cAoxCtfOR33lMnfTuG/shH7cuBI6nVN+EKwvJI6mF3WU1kLodP82lTO2xHOzHyGdcs20HP2SJKRqtf49q7XzL/WdCzLqLGEGE0XPJhpk1YIz5v98UumJgktXxE9oQ8xE4LYIKelsZOOZZOR0SRLJRWEmIrtt6l+TsStaYpzU2C3VGJhauFSCuNGkGKjPZHRIWPAGTeKFJohjDFozLSfYkstWCwQOnfO5OuN7N/GZTUwld17uBhPmhPl+xoSRy3MrD/bUTQzJ3fpRi0KGdQlyvWq7UIeO/mmpuXS93I/wU436pOujZn15NsfM6Oexd6/uQSki0GhRvQLfcEm16Db2Nb433TrzbTuVBcQsw28jP1JvMCQTVrlQh53Cp7yVdHAsx0OqhIWB6L/fTEU5rMVkQDo5ho7VVTgqqkAT+TxqdDcNfG7Wzq5wZ6wInPXzEvnSIjzOy3xgVFcWt+c84kLfKG4kueTf3+C5xOarLJUFqyrhWRfvgJL6EzaIhBm2mSUmEoXFTkKQoRCYKmMROP2ZRaw1GK3xFLxIo9HREeLLAkrKreJWKEgIWqxWDDst0gQM2eK04lfkmn3U0xkNK4QMv0gJvtxTLeucpTriEqyoKmQVzWT9TPT46m2m816Mkm3bjPPSdbHbNaVL7OvPd1+yvfErlB9NPvcfN5zs1fZiynT56gUfSvkPi1XhfpeKAdm3p9CjLSalekim9kAaqH3s4KnfMQCJ59xTlNk3tHsaV0oRAA7DRWABX476MXVWM3NnjDLDPOkIoFT/H2bkqfmLbD1Fi7HEBhFAyf/WyfY/ffRM971TnbunJcEZsrp0AxkGz/NeItcMKKGZTVkLBSRuU2mzUQCgtDZuXlLsXlHMeGZECyrxAJUcobTZ2tprLHgCVnn5ibNBk7x84nsrmtZVaBgomAsxn6bZGI/RcSP1JkVio/cCn5ikO0Vw1LJdXuFumKbbJ3ZnLQXYruZ1lkOCnGSU6yT3YvtJDqdhUzfLURQmSpdqtSvqVQn7flaiFG+QslllMvMRa9UFxTSjfbnkhJajhQ85cNioYowvx2dXwxiVjhMJAGomjUWH7/yTUNjE912HzWEcYcAIil8+LxFu+FtwSyvxEaId85G/qytqwB8HPv7wgxpHJyZ5N7lq7jeAgczrnI9KyoheO6dgmw7pZIUigCLxQJMMZqmuEFodk5THRXnRvBNQaNrGfZzFghNRkdeIiMuobMjOc69Kh1LNBUvlMXhY2Y/RURH6pYtwzJqJqhNmDcWVc5f4IWU68hTpnXmk9Oez49opu3mOsfDuGwxymV/mk3DKeRIVKFHnWIKcWJW7id26RT6xDTXCxyLzcXwelIFNWa+CzONXCWuq9DK7TP3nxa6A4taKESACpbNXjpPrHYHEOZcuALXKgc1U9O8SJijU3BNox0IMxaOtBkLMVtYAmKjTtleM58zEgpDhZ3u3FeRhJ2bPmSHs6OzhSAmJ8JABXWxKmzRUSdbrpuYeptBKmlftj5zW8sG2i0wNpOqWMQHuevR+9n16F3c2pprhyJFINIHImbaZBYJjCLzdCKrTah2B5E0N0stLcstTE2FIHSOKVbQuAwIzcym780Y0vsgOuo0P8vNbM8iwU1NHfOTM/NgWU7LckvW+83UforynZuKpjaaWHFNHfZ5KYOSr9iPcr6jUNk+J9/tputDbP3Gf+kU8oe/0K+lEMwEK2bXkW4kIp8grpASg/JSBtKFPp7TpTeWui/lYCHe02KKfQca5yelev8X+nUn9qWcZTXytPkLX+OuLmNO1dXc9e2/5S5g6Bf/nb/8J2DzPXzr81djNbTq+vzf8p3PA8O/5PO7/qUA3S4T4TH+2WPnsy2d/GN00cjg2/y2cTWuuUaMheAaO/w2WhzixSkfn3A6qAr7GIm2emZwmDVdTXOlxcNevj9o4bMthu3Nm19VwQ1dndzA/DLkL3reZqWlkxs65vqWbanySEGHRv7oK3MpeP63TvC8cZTpp6f599Z1fGjnOq7cCZHy46ex71xlejvx/g+/O7eN3uV/wKfOHuGHaVp+avlVWENv8tOUoz1nOeeHJlsVrWubYGA4VcPUokUgpqbSnFGbaWPGVD+np65l1VXXRivfhRh9s5/Kq9rm2oRmCGPBTmxuVQjfuRCNyy2EzsW2H8LjPkPNVYbS4lP9nDi7ko5lhm4nljKfLUUeYjShap3PfZzRqzpZZfhiza5UeSwAy7/cuan9NNs2UkGvcXkNnrSFPOYqJWYqU55MNpNciyGXkxgzk89TPW5m7o7xOYnpHcUY5Uq37XQpKPlccU22vnz6Wy7BQTZi+9nM8ZOq37mewJk9DpM9L9f9ne+IVaZl2abB5pPmlM8IXTYjtvm2yVay9yvbvhRqhC7VsZwpDTCb7+N060n1OlJ9F2cbQOVyTKc7jhPlGtAV+3vysiuv2fh+0dZehlY1X8H54AV+/x+X1MteZD7Org3baDj7A+5JdaPcmvv5Xmstx373KF9Pd7L7oT9l143L8fft5ms/yT54iswTSrg/Ug5tZAHVtLHOZZkXEBpFAslQ/D2nUjCTC17Kk+lCbjMfiWlykFtFp1y3aVyWbNuZTjIz9SnXx7N5reX0Hhb6ecV+bflcQDAT+GfaXr6Bhpm+5rv+XFJo8/1+K9Uxne8xmOkCUDrF/p5bCKU8nov53hVr/yt4kvJUcz/fa11JMFkAZbmTp6++CtIFVwA0cev9O+my5XqT3HQ3pc2mjSy0SNri/BE1YLYARU6jYCIiInJJUfAk5avmfr7XCnsOfyMufe9TrsfZFkofOG37/P18ZCXgf4vnvrGHgaJ3Vsqd3XUtq0i80W+kMmHlWQVOIiIikpmCJxERERERERNUbU9ERERERMQEBU8iIiIiIiImKHgSERERERExIav7PF0szk+f4913313oboiIiIiIyCKikScRERERERETFDyJiIiIiIiYoOBJRERERETEhP9c71jxlwvdiVKqsVdz3h/g97//fZG24KRz+1Yc/rcZC6ZuVb+2l03O8wx6A0XqR6lFXvfVrct53zOE78JC96fMNGxgW083q1rbI/9si+S9b9jAtp7VC/eeWtvYtPUalqTdvo3mzdtZs3SUM1PvJjzXxbvus6T5KBaetY1NWzfT3tqOg4Q+LUqR/dvdET12i/4Zj32XxLZXTaCU72HaYy62L0rcJyF2XKxK9pmKfr8m/byZ/Tw2bGBbl5Wxd86hny8RSSe3ghHWFlwr7RAaZXjYy3upHo9J1e4iZHWtoT5wkkNj6Rq14XL4cR/0ZLfyhg1s63ImLPTjPniAIf2Kl7exw+zfB5GTry24Fro/MdY2NvWsIdi3h+PpjtkF4aSzZw0MpD++69duwcVJDrn98Q8E+3F7e+ncvoHj+w4zXtzORs31eX9ifxYtP0Ov7GEIot9BVUXenofj+/YAYHVtYVNrkTcXx9wxd3GKfjdVwXhZfh/kKNjPoX390e+6LXT6U7y2sZO427awaTMceqVfgbGIpJRl2p6duvYuXLYZJkIpmix1sGKlhYnTfbhP9eE+Nci0pZEmhz3FEy4mNuqdNoIeT9ovXqtzBdbAGcZz+nb24z64h/37Iv8ODYCrp5fOhhy7XDCRE579+y7Fkw4pPBvNmzdQ7z08PygysLq20OnwcDzFyc74GwdwB5x0rk286FAkDSupx4P7ogmcLiXmjrmLkdW1hW3b14Mnywt6i0mwH7cX6htTfRf4GXrlMONVa+h02UraNRFZXLIIniqobmqBkT7cXl/qZhe8nDl1gunZcW8fvrEw2GuozKeni0HDGlxVmU6cnLhabYz3F+bKVtB9BHcg3Q+CyOJjda3HVeXh+BtpTuasbXS22hjvSzeq5Geo7yRBx4bcLzBY29i0vRwuUEgxmTrm8BMMAAHfxTMy0bCBTc4zHNp3gKHFGjNG34+gP98X4OF4nwdr63qarYXomIhcjLJI2wszPdyXx6YsLF0KMxdxMnF9oxO8GdKDolemC5cSEf0xr7JhxUMwmnrh9BzgkH+NIc1vfnpfJCXGcIXNe5j9sROHhg1s64LjfdDZ5SQysjSCc/sG6uPW5aRz+wbqZ1fiSZEiNZcSMitwcl56RP3aXjodc3/nlD4S6/u+k1iN2zS+vqR9SpYCaa7fafelKdHtBOY/L7JP4vdrvvspsb/Wrl62zf6V+B4GCAbj3+dk20vfp7nj8jjrDdtOdrxER3AHjqT9LEVGcE9mft3BftzeNXS2tWEdy+GiRbCf4wMr2NTVy6aBA/mPSiSk3wbnrXP+MZfzvkyS6jv/vUv8DOeRCpy4vaw/B9nItJ8iEo/LmPj9bu6YAxh/Yw/7s+jT/Pc3yfeFcZ9H92Gq98kaW9/s91zsezn19tIec2OH2V/IFL1oKvBs7JH4fZlFv5O9d0kPy1hqXiGMncQd2IKrzclQ0Y5dEVnMSnKT3KUfqAB8XLiIA6fIPCYY70v3ZWujuc1EgJUVG9YqIOCPP5lv3cK2aCrdONEfoa42xqM/YnMn5AeifYn8MG/bbPyhc9LZdpJD+0ZwbV+Da/MaPAcPcL7L+MNibn7C7LyUfalOXg3Bw77oPrS2samnl86c8u+ddG53EozNPbG2salnA50NsXXNnYjMzk1p2MC2ni1gOHHM3G+z+zITP+MeP67WNTRbPYYTVydOBwQHTkbXXZj9FHQfYL8bk3OenHRur8J9cA/Hg9H3uWsLzbP7yXyfrK1b2OSNtYvsp861zvgTbKsTZ1Wmq8iRk93E4z6V8VEPdNmxkuLkK4Og+wD7/RvY1rWFbc5s3td4sZNm44mx1bWBZuvh+IsR3sPsf8V4IWN+4JZxX1rb2JT0JNzYocj7b5yjZXVtYVNPL5fnFJAHZr9zYsfFtrXFCKDM7ad5Fx4MrzfuRN3UMZdZ/dr10LeH/bGDoyFyzMTNs2nYwKZWcB/ckzxAHTuJO+DE1eiEMcN+i114iwswknw2W9fT7Jn7Dst8zBVQdE6c8bXVr+1NMo8oU79jc0ON373R7+wCd3m+6HexM3ZBUkQkXvFLlVtbaLRDeGyUmaJvbOHEroK70xaKcOKs8uPuL9yJRP3aLbiSrTNwkkOGq9BBvx+qIiePc4GeMYiLpCtQtYJ6w6/TXHqhDWvgZI4/tskDvDjRlMe4lJmMOerpjfftmTtBCka2bbVFrvbGCnvEnYiMncQdsOF0xq4Im+h3Fvsyk6D7JOMYt0/0hMmPxxML8Aq/nzKLH4kIes4QxMblsavr2fQpbiTCg8dLdNTUoMqOFQ+etCfuVVxeFQ2KzAj4COLEGZd656Rzey/bkv7bMj9tZ+ww+/dF5kRsihupmRMZfR5JfnEkmmYYHDgQF5QE3YcNJ7prIifIxn05dpjjXrA6nfH7KdO+rLJjxc/5NEUd69vWREbvDJ+D3FKBo+nIcZ8DP0P9HnCsTLqv8mFuP0U/v8b3I+jBEwCrLaHohaljLrPxNxJG7MYi245970Bs2wGCKb9UIifvONYYjsHYhbfEYyvDZ9PEMVc4kT4GB47ErXu8/yTBed+FZr5T/Lj7Clu4YXzUk7Bfkwv6A1l/f4vIpaO4I09LHayIVuXzToWLuqmFFTlxCA6kv0oVO1HJrVBEjA1XT+9ctbZAilGRhBP+2ZEGmD1RmBfojY0wzoa5H7CEE6+gP9fS2pGTKFfXBrZtJ3nam60KsNG5vXf+0wO5XAFMPGmcGyGLbM8GVWvYtH3N/KfaqgC/qX4niOSJAAAgAElEQVSb2pemOx45Ae50OrG6I+9fLBV09uS64Pspf4XuU+zkMkOjnEeR5sQfE+afc4DmzVvo3N47ezU/ll403rcndQpUNJhxe9IUwLDZwHtyXvCV08hZLP0o+n0xfwQqElzML3CTw5X36PsRn/45tz5r/m9WwubM7KdoSrMjMmITGXmKjDCNJ1xsMnXMmepYQspaVPx38UnGWzdEPy/JUyRjbZxOG0Nu/9yFt7SZDUmYOOYKJ3JBw9q6hW1JMhCy+S602qog56JKaYwdZv++6EWTlCnmIiLpFS94WupgxapGKvAxerGXKU+aTpEokn41nveVtEVamjxWqjt6chEJWhJ/vEr8Y5YsGEpkqt+FM95/kmDPCuqt/QwFY8dM4glTOf7oF65PpoL0oLl0vXjpR2HMic0Pin+9sXkw9Wt72daWe1pfYc2VGI+k7UYCm6RzYgqk3EpcB/1+cDjjAvvEUZhIuwIGTnEjgslSzWJBezQ1LWlwG38hBecKrN5cR/5Lq5jHV76MqaXHM7ZONzooIpeyIgVPdupigdOpwYs6XQ8WqlBEHgI+gqzB2QDjxv5EU8TcAaBYt3KJu+fGXB8iJy9VBb9CnbIbfj84sriSn6LfpvZlVh3z4AmsiVxx9q+cd8+wUu8nMwrep1T7NL4R5wPMnxeSSpUd67yTocRCCUZJLlLETo7TBN1pR4iiqYPprsAH/X5oNYyURNU3OiFwMufdawzu5kY2IyMzVsNIZ0R288miHZ9Lix0r/omzuf0USyU0EdCZOuYyiI3ymE7LjgW30SAq4Vieu5DiASfZjzqBqWOucCKfyfrZkfs8VSV8jqy2vOc7pRqxnN8uMvJVJl+xIlJmijDnKVLSvPoSCZxmb3ib9gczlgue+Uu7JKJ5//VdxhNHZ6SqXqmubibOx4jON3L1pDqZjVe/Njo3Jcf790TmFznp3NyW3Q9yYr8Lvi8jKVNWp5PmRuf8lKpC76egIT0wV1n2KaPYPk3bp9i8EHPzaSIn1YnlpWP3Jkv2b35lym2xwgq5jirF5oF1xc+nikzejzbxnCFIwn2pGjZEUgLzvr3B/Dl846MeSLivTaRkd7ZzMz24B/xYW7eYKukeua9QL9uy/fxFZbOfjPON0qzQxDGXQcAXP28nbXBuFEl3mzf6FfTgCdhw9WzBRY4pbCaOucKJzXHbwKY875MUe39dsfWkSIcsjhwuHojIJSWrkaclNR00NVQYljTS1N4IwPRIHxNBWFKzijoLgJ3G9q74FfgG098jahEydcPbaL66pyR552ZErngG1/bOS2fZn226xbwftbm5L3PpG8lOIhKv7PsZeuUAROeSGKWaq5GfSNpV5/YNCfOe0pVhT9XvzPtyXmniqug8qiQjHLH5DpEiDInvR6H3k4fjB0+yqSfWn+iyrFLwsumTufUlrzwYL+g5Q7B1DS6XjfF0x+1sUY8cg4/Z+0nln5I2/sYeDkWr2cXmLQYHDnAo1rFgP4f2+SPVGmffD3/qymzpuj2vHDbzS4ePHWb/wTY29RjnqSS+//M/B7PzLg3rC7oPcIgtbEqc95SkXHnagMbMd4qp/RQp3LKtK8kcnHmjh+aOubQMJe1jr3+87wDuti0YQ7Kk5beTprrF5lw68wqcMx5zSd7f+thrMJPabDR2mP19G+bv82zXE+znUJ/dsJ7IXEPr5vh9WRSzxSpUplxEkrvsyms2vr/QnSilVc1XcGbUy7vvvluAtSXcdyOF+rW9dFaVyzwIkcUg9X2vjObmMKQK9sytp2Bm72FTbnPSLkGpyvCnKlde6mPFDB1PBVW/tpdO0r2/5n7TReTSVvxS5Rez6Dwmt5lCEXmn3IhcSvwM9Z0k6NiQNjUzUlY7dXpUpJR/QknrYorOMXHlmbYkBRC7NUOK5fPv6WTumCuZ2ft0KXAqjOg981IWB7HRvHnD/FtYiIgk0MiTiJQvaxubelbgSVthMjJi4PQk3vi0jU09dtylvmrfsIFtXZGT73KuPHYpSJq6mKliqaljrniMfS636oWLkjENNEkK6ayGDWxr8ylDREQyUvAkIiIiIiJigtL2RERERERETFDwJCIiIiIiYoKCJxERERERERMUPImIiIiIiJig4ElERERERMQEBU8iIiIiIiImKHgSERERERExYclCd0AWRuUt/0x399zNI2eOPsPRH+1ewB7lqOpL/LCnnTcP3sNfGW4c/+DDN9F7BQz98mfcQTf7bnTCO0fZ/tUUN0hcRG69+8Pcs7YK/xsv88dHnPzkc+3Y/Kd4+uEBXpht1cNf9NxLbf/nuM+7gJ0VERERuYjkFjxZW3CttENolOFhL+/FPWinrr2FauMi3yBury/3XkrBzfzoExz8EcADdOzqpXKhO5STT/FkzzrofyoucAIYPBeAK2DiHYBp/DixxbWo4vGvfpj1xoXzAhAzbeaCmTkBjnzvZR58zbDok9EAzmDolz/jjh8blzh57lvdNBsXJQn4Xhjzcw9VTI4F4LUAk58j4bUBHOSv+j/Gv3Z9jyf7FECJiIiIFEKWwVM0MPKNMhGyU5e0jY+JU31MJDzHhQIoKaQe/qKnl1bPHv7IfdDUM/zn/Ia/Ajz48M8Mf0cCpXu+CswGR2bawAvPvDw/mPrch3kcQwD146NsNwZKn+xm34038RzGAMrDHV8wbi8STO172MSI2VQgrg8AeB/l6/1P86WuXXz+F4/ynfRrEBEREZEMspjzVEF1UwuM9GUZBPnwjYXBXrNIRzekHG1z3cbGqkH+5Y0fZm78WoDJjI0CPPiaB2wruO6D+bSBF545xRBVtK+vSt3ox6c44ofmNc7UbfDw0zcCcMVyHkzZxs+EP+WD7Hd/l9cDLfzXtZ9Ksx0RERERMSOLkacw08N9uW8pNMOF3J9d3toeo/v27rngcHgPB7/9RFyTxDlGiW1q79pLB3s4+FYnPTtiiVt+hp7/BCP9xjVF0uxqjYvmbW8nKx+6m2bD5ib37uDESwV4bf6jHP3al5nJekVV3PDY9awz7oJ9e0mcZtX5yA52XDH/2b6+X/PcU7HcvB62NVoJ9P805WhK/GhQ4ohOOn5GXytEGyJpdZnWdC5N5DPbaJpB499xo1iJo2OJYul72/iLgR/OS28E4CP38s0/bIbBn/PFJ3+VuT8iIiIil6jiF4xY6sDRUMH0SOLcqIvE1mfp2dHMzNFnOBiLBLY+S8dWZoOV2rv20tE0xIlHPxEdAYkEQD0PLY8PRJp66Vl2lKOP3slMLADa+RiTs212svKhXmqTBGdzosHV8B4Ofu0JQx/30t2QZVGIrc/Ss6OWoed3zAZwtXftpfuhx7IMoBzc8tQ6mt45xpNfjk6+2bmO+7bv4I6GuaAoEjh52XvvMY4DXOfijttXQ1zgBFRdz1VV4AmYS9czx8lzNzrxv/Eyj+fVBh58uJtm/yme/nHqNrfevZ71Ng97nkkTYH2wlc+urWLolwPzU/Ky4f0dA/RSWwVkjudEREREJIUiBU8JRSN8g5wJFmdLC+sBOnY0w/Ce+KDkpTs5Efv/tsdoboLJvXcaUsee4MTeTnp2rKa2jbmRpbhRnd1Mvv0ZmrtrqYTosmZsNph5eyhljypv2UItQ5wwBlcv3cmJK/fSsfo6KtltMujZycqeSFBoHPma3HeUmdsT+p2B497VNOFl71cMVQt2H2Nvxw52tDpw4MZLFY4a4J2zkcAJ4FUvp3euZl3iWX9VDVUM0pd3EYSEghD+Uzw9L5gx0yaxaESAI99LEvAkFI0Y+mWyICyhaMQ7R/njNEGYOaeZDMBG56fAmyTN8RdP8cVf5LsNERERkYtfkYKn+KIRlY4uXO0+Rk8N5pDuVcballMJTL6VahQIWFlLJUMMJabMvXScyR292FYCJoMQeIKho1vo7r6bnu67k6cH1tlg+MC8OT6Tbw3BDmMglkkkUKuMbStBNv1uqK2Cd96eC4qijp/wsmN7NQ2AlwDeKeCK5XTijY48OVhlg+FX46OkbVUNwJi5jacVn/J2690f5p5vreC6uEp5ZtokpAl+sJWffO4mfrL+Zf7YGGjFpds5ee5bN7FvTWIxiPgUwwcfvol93/Kw5wtH0452iYiIiEjxleQmuTPeQaaxs6ymohSbu6jN/OgTHHx0Bwf3DkXS/Hbtpeehx4pWjGPm6DOR7SX8y2n+VAZjkwHAwY6ndnDfUzu4L5qyl5hpuD9QiMBpvheeOcIRfxXrb0xdxMFMG14b4PtvBLCtbU9T6MHDHb/0wBXtPJ6m+MTjXz3KEE623J2m+IRJAf/pvNchIiIicikr6U1yw++GS7m54us/ywzdVDbsBFLMJRqZZIZuGrbCpDHg2NpJLX6GRnLc9kt3cvAlovOS5tLoZib80N1JLcSNPtVe2Qz+o1mM/A3h90NtXXPmphmMTQagyzCiFNXZ4QD/29ExJAdbuqqSFpGYJzBFgHV0OYAi3L/ITBGHnAo9JG9UsOITqa2ituBzxEREREQuPSUYeYqUOK8OjeK76OY9PcHQUT+V3XfTsdWwOFowAoD+VxnzQ+2OZw0V8mJzpQ6YnjeUSmVDJEyaia5n5ujbzNBMx10PxPenCSYPZlPkYTcjByOjW9237MzcfPWneeivH2PXX/8Ft66Of8h7+Cw+HOx4xDG3cOc6dlwBw6+64+Kf6gYTIyyBX/NmAFqdhS2//eDDH2a9zcOBNEUczLThk93cs7aKodfSFHr4YCs/udGJ/41TadLxqnj8q5HiEz/NZ96T42paCTKZqssfuZdvfuNv+Ob/+hPW5LEZERERkYvdZVdes/F9s42X1HTQ1JA89W56pI+JIGBtwbXSHvdYeOwEZ6bKY9RpVfMVnBn18u677xZupdGKe7OSzEWKVNyb+3vmaHzlu9q79tKxLL4MeKS8+SQnHo0Wm0gsGw7A0NzjsxLLmc8veZ7Yn5TrS3xtkLxc+R98gV0fbQHO0/edv+KFtxPXG624N/t3gGPP/5pfvWposnMd9213JD4R/G/zD1+OD7K2uZ7mS23w+sF7kpffzuSDrfzkc+3YjMveSZh/ZKZNYkEJAObPUXrw4ZvojSvBHuBIwrypxIISAP43EuZNZa2Hv+i5l43+PfxRqntidfwJX7mnm2rO8/rTf813TyRvJiIiInKpyyp4uhgUJXiS/EXLkk8npu2lKlduJiiQaJA5xr/84tGU98QCuOm+v+HmFgVPIiIiIumUpGCESEZN1djTLJ+eN+fnIH/Vd4yAs5d/XVvY9L2LhmMXX2qzMtCXPnCi40/Y2gIMHlTgJCIiIpKGRp6kbDjuvZ5PdyXOeUqS3mdU9SV+2NPOm7mm7120IiNztf2f476URTVu4IFvfBQXMP363/HID/KcgCciIiJykVPwJCIiIiIiYoLS9kRERERERExQ8CQiIiIiImJCSW+SWw7+YOtmU+2e/36mO7WKiIiIiMil5JILngD+7p/Sl7b+s/+m6m0iIiIiIhJPaXsiIiIiIiImKHgSEREREREx4ZJM2+PD5/jNvUNUA9OHO7n265fmbhAREREREfNyG3mytuBq78LV5MgQfdmpa+/C1d5FnTWnLRXHy8u49jPraH+qGTYc5/9+dqE7JCIiIiIi5S7L4CkaDNlmmAhlbr2kppHq3PpVGi8v42eD0HZ1YKF7IiIiIiIiZS6L4KmC6qYWGOnD7fVlbr7UgaOhgumRQaZz75+IiIiIiEhZyGKyT5jp4T7TrSuXNVIRGsUbBHsOHRMRERERESknxam2Z22h0R5mYtTLe0XZgIiIiIiISGkVIXiqoLrODr5Rpi8Ufu2F9ue/a4SWMb734YXuiYiIiIiIlLOCB09LalZRZ/ExamZeVDn4vpP2zzTguPcYp37g4a8Xuj8iIiIiIlKWCnyDIzv2hgrCY6eZKeyKi+bOL53m4Q2VvPCZdfyX6LI/W9AeiYiIiIhIOSps8GStiZQmb+jA1ZDw2MquyE1pR/qYCBZ0q3lpq/PBYAN/vtAdERERERGRslbY4Ck4iPtU4kI7de2REuflFDSJiIiIiIhkI6vgaUlNB00NFYYljTS1NwLlN6IkIiIiIiJSSFkFT+9NncA9le0mfEycMn9/KBERERERkXJUnPs8LRoBNrTA9ERF5qYiIiIiInJJK3C1vUXiw+f4zb1DkeIWg6tp//qluRtERERERMS8SzNqeHkZ1768bKF7ISIiIiIii8glnrYnIiIiIiJijoInEREREREREy7JtL0/+2+fWuguiIiIiIjIInPZlddsfH+hOyEiIiIiIlLulLYnIiIiIiJigoInERERERERExQ8iYiIiIiImKDgSURERERExITcqu1ZW3CttENolOFhL+/FPWinrr2F6sTnJG0rIiIiIiKyOGQZPEUDI98oEyE7dWlaTo/0MRHMq28iIiIiIiJlI4u0vQqqm1pgpA+311e8HomIiIiIiJShLEaewkwP9xWvJyIiIiIiImUstzlPJlSv7Jqb96T5TiIiIiIissgVIXjyMXGqj4nZvyuobuqgqb2S0VODzBR+gyIiIiIiIkVXglLlYaZHRwljx2ot/tZERERERESKoaT3ear4QEUpNyciIiIiIlIwpQmellZSQRh/IFySzYmIiIiIiBRa8YOnpQ5WrLSDb5TpC0XfmoiIiIiISFFkVTBiSU0HTQ3G1LtGmtobAcNNcZc6WLGqkblWYSZO93FGgZOIiIiIiCxil115zcb3F7oTIiIiIiIi5a6kBSNEREREREQWKwVPIiIiIiIiJih4EhERERERMUHBk4iIiIiIiAkKnkRERERERExQ8CQiIiIiImKCgicRERERERETFDyJiIiIiIiYoOBJRERERETEBAVPIiIiIiIiJixZ6A4suJ3ruG+7Y+5v/9v8w5fdeIu5zdvO8ubNsPvW5TxqWLzrsdf56Pg6rvva0mJuXUREREREcnDZlddsfD/rZ1lbcK20Q2iU4WEv7yVtVEF1Uwd1ltjfPkZPDTKTe18L7zoXd9y+mul9e/nR7hJtc+skr35xgLEXN3Lzd5M/xusKoEREREREyk2WI0926tpbqPaNMhGyU5eq2VIHK1Y1wtgJ3MPhfPtYNI4Ny7H73+bfShU44efFaHA0L3ACeKmW61xh3rx5iOe2tnHHS6Xql4iIiIiIZJLFnKcKqptaYKQPt9eXpp2dumjgdGaqfAMngIbaqpJub9djb9F2vpWn040qfXc5u0+fY/Ptk9xRuq6JiIiIiEgGWYw8hZke7svczFpDNT5GyzxwMsfBLU+to2n27wDHnv81v3rV2KaKGx67nnW2uSXDSdMA/axfBf0v1vJchq0++n9a+egXB7jltlqeSzZCxQ088I2P4mKIF+9/ip9l85JERERERCQnBS8YseQDFgidg5oOXA0Vs8unR/qYCBZ6azlILBDBaj791OrZv2YDn+h8KPp+zZNPBQBw3Hs9n759B7VNseAoGly9c4wnv+w1rH8HdzT8mueizwPgtvO0sYxX3Cb6+NLl/O52uLrxAqC5TyIiIiIi5aDgwdPSD1SApZFl50/gPhUdfbK24FrZBeUQQO0+xpPRUaHOR3awoyZ5db3Oj6zG7n+bfzAEQN6njnHssetZ1+EAvDjuXU0TXvZ+xfDs3cfY27GDHa0OHMyt947GIJxfxkum5jEt5Z0J2NxxnjtINlL1K564/1dZvGgREREREclXce7zFBrFa0zbC44yEYJqm70omyu8Khw14BvwJgRVAY4PBKCmCgfROVPvnOV4wrOPn/CCrZoGw7LW+nPF7rSIiIiIiBRRiW6SG+ZCGKiouGRvLDUwviz7J018IOP8KBERERERKY2CB08zfh9YKhNm6lSwtAIIh1PcE6rcBPBOgb3VgSNueRWdrVUwFcALjE0G4IrldCY8u7PDAf5pxgzLnhu1wuXn2LrVzPYvcEUdTI9XZG4qIiIiIiIlUfiRp+AU09hpdMyl6C2pWUWdJczEuXQlzstLJPVuNX9471w5c8e961hnC3DsF5FkPu/hs/hwsOMRQ4i1cx07roDhVxPmUX33cvo5x9U9FzJvfOt5rr4cxkZTFYu4gQe+8Td88xt/zm0dWb80ERERERHJQVZZdEtqOmhqMI6GNNLU3ggYq+n5mDg1CO0tuGbjJx+jpwaZKUSPS2X3MZ4cdnHH7ddz31OxhV723ntsbo7Tq26eezXALU+tM7QJcOz5vQnlzAFsHDkNOzeOs4vlPJpm07s+PkD1+VaeTlqmHGCIiWlwVV/Omo1tcKI/hxcoIiIiIiLZuOzKaza+v9CduHT4efGFt2h4fR3XpbpR7m1nefPmIK98s4070lXm+8i9fPMPm5l+/e945AcKnkREREREiq1EBSMkwsbNL66keuMxXn0oSfre1klevXmE6deb0wdOtHHblmZgiJcUOImIiIiIlMSlWvxu4Xx3OVcBb948P31v18cHIN2oFHDTfX/DzS3A9FG+ef//x8li91dERERERACl7YmIiIiIiJiitD0RERERERETFDyJiIiIiIiYoOBJRERERETEBAVPIiIiIiIiJih4EhERERERMUHBk4iIiIiIiAkKnkREREREREzQTXIXlQfo2NVL7ezfQ5x49E4mF7BHRXXbWd68GXbfaryZsJPnvtVNMx72fOEoPHwTvVfA0C9/xh0/XsC+FsiDxtdDN/tudMI7R9n+Vc9co62TvPrFMD+/Nf4myyIiIiJSXLkFT9YWXCvtEBpleNjLe4aHKh1dNNpTPM83iNvry2mTAvAEJx59AoDKW/6Z7u4ibmrnOu7b7kj9+DvHePIr3uJtf+skr948Qv+LGxMCBD8TfmhmmkGAcwG4oirNimLBVroAy0ybKh7/6odZbwP/Gy/zx88Ekm7t1rs/zD1rq8B/iqcfHuCFZI0+GQ2KogHg44aHBs8F4AqYeAdgGj9ObInPf6mWn3/8dXa+ACiAEhERESmZLIMnO3XtLVT7RpkI2alL0mLG24d73jl15HkV74Zy7KaU3O5jPLk79oeDW55aB/v28qPd6Z5UKH5e/OIAvL6Om79rpn0gGmzMd+vd7TRneLaZNnyynfXzophETj62Nl0gB1DF4x90ZlpRHP85/7xlj355HVd85xg7H7ucR7+csWMiIiIiUgBZzHmqoLqpBUb6sh49WlLTSDU+zk2Fs+yeXIp2PfYWbedbefprSzO2fWFsfmAx64OtfHZtFUO/PMpQPm1w8tyNTvxvHOVIms09+HA3zf5T7Hkj+agUwK13r2e9zcOeX3pStpn1WiBNSuZS7ni+lelVb/HibZlXJSIiIiL5y2LkKcz0cF8Om7Bjb6ggPHaamRyeXUy1d+2loyn2l5+h5z/BSL+xReIco4Q2bY/Rfftqxp7/Aey8m+bYAMDwHg5++4m4bUXS7IwjBEm2t/VZenYYxkD8Rzn6tS/ntN/iXxtM7t3BiZdyWJEpkZGpuc0FOPb8r/nVq+napGrrZ/0q6H+xlueSbivAgw//bO7PHx9le4q5Tg/e2I7Nf4rv/xg+dmPubSIjUx72POOn8avJ2/DBVrZcAUO/HGCwYUWKRpGRKf8bR3icdnqTtHjhmZcNqX4e7vjCz5K0inqplp9/fICd2ya547vJ99eaz/w5X9x4OdOv/x2P/KA/SQsRERERMavoBSMio05hJgLlNOq0k5UP3U2zzVhwYScr73qMyv5osNL2GN23d8PRZzgYzVWrvOWf6b59L7a4QMRG8+13M7l3BwdfIhoA9dKx9Ym5Nlufpbsbhp7fkRCczYnNYZprE+lj965nsywKEX1t5/ZwMDo/KvJa9tJBEQKo61zccftq6Ps1Tz4VGXFx3Hs9n759B7VNsTS/aOBkmCfluPd6Pt3F/CDrtvO0sYxX3Hn265Pd9F4R4Mj3BngBJx/Ltc3syNTLPE5V3PykOVU8/sl2bO8c5Y9/DLfenbxLsZGpp58JwCdzfF0JHv3tSnbeHKa1MKsTERERkTSKXKq8AuvlFeAbZfpCcbeUjcpbPkOzzc/Q88agZDcj354b5and3k2l/ygnDJN8Zn70A4b8UHvlA3HrixvVeek4k0Blw8657TXUApPMpLzw/wDN3TZmjv7AEFztZmT3UWZopmFrFi9ua28kKDSOfPV/maHh+f0uhM6PrMbuf5t/e2ouVc371DGO+aGpI1pw4roqqoHhE3OT4byHz+KjitqEoag7GoNwfhkv5RXkRecVvXOKB1/Lp83cyNRP01Xy+2Q7620BjqRLxYuNTL2WoohErtwVTDPC+hSpeyd/8Nd88f7/qVEnERERkQIo7siTtZE6S5iJ0fKqsFdZZwP/USZTnk/upHIZzLz9akLK3G4m3/4MzauXUwmm0+lmfnSAye5eOnbtJWm6XttyKvEzdjShGkP/q4z5u2lo2AmYq9QQCdRs0W0l8GfX78yqcNSAb8BLfI2QAMcHAqxrrcIBeF8NMH17LJiKjjxtWI4dL68lvKzW+nPAsrx6NTuv6OHUwYyZNvEjU6nE5kO9nD5QM4xMiYiIiMjiVMTgqYLqOjv4Bstq1GlhxEqMR1Pqbt9LM8Wch1Ru938KMOmHpivWcd9Tc8uOPX+M4wktB8aXkbSMo2nGeUX5tImNTB1NOzI1Nx8qdZGI2ZGpH5soEpGTZYzlm+YoIiIiIhkVL3iyNlJngemJ8hp1ApiZ8ENTbZpRmN3MnLubytXXUcluQ5ud1K62wbmzOY7e7Gbka7sZiQVRVz4ALz0B/WeZoZuG7p2M9BuGYtquo8EGM2Pm64PPjE0CtVS2AUXP1ArgnYJ1rQ4cuA2jT1V0tlbBVCCybOdq1tm87L13frCU6LlRK/9j4zm2bq3luVwCy08uj5QdX/th9n0r4bEbb2LfjTA07Mnc5nenqLUBtu75baLP879xmFOuKqCK3m/dlFAAop17vtXOPf5TvDUVKU2+/nM3se9z8auKPG/+/Z5Mc+iI7w8AAB3gSURBVIWpxso7RSsGIiIiIiIxRQqeoqNOoVF8weJsIR+zaXQPPWaoZreTlXddx2R03tPkW0Owo5uOW3ZydLZgRHSu1O4n0qzdjGZsNph5O1Yc+wnGhnvp6P4MK4/unisYsTM67yqbE+OX9jDUczfNtz/LjInRp233PMZHmoGh/8ujT+/L+pUcP+Flx/bV/OG9Xp6bLRixjnW2AMd2G5P5qnBcB8dfTb6eWd+9nP6bR7i65wK8lLlU+TxJq+9FboJLyhvgpmozkNAmcqPcdrfxJrnzq+HdeveHucd1xnCT3MT1EL1RLrkHTVG7rhmB863JtgDMVdtj8Od88clf5bElEREREckqeFpS00FTQ4VhSSNN7Y0ATI/0MRELlGKjTiNe3itQRwvrCU48OhStZhebGxSZizQ7ovTSnRwceYzu2++mpztWPi23dLjEsuEAM0efmQ3KACa/vYOj0Wp+s8XKE0ueRysAVs4umJvbNLe+3Yx8DXjo7nnznuanCa7Gkd/0osjNdIdd3HH79YaUvIRRpt3H2Nuxgx2372Dd7fFP9/X9ejboir2mI6dh58ZxdrGcR/Ps3kVt6yQfTVvWHU56zgGXQ8uV3MSvkoR6IiIiImLWZVdes/H9he6EXNwiZckD89L2UpYrx8+LL7xFw+vruM7EjXIvTRd47jvH2DxxJVd92ZamXRu3/a8/Y2P1EC/e/5SCJxEREZE8FLlUuQg01FalWR7AOy+Vz8bNL66keuMxXn3okq82ktSux46x+fKV7E4bOAEf+Sgbq2H69Z8rcBIRERHJk0aepASquOGx61mXeJ7vf5t/+LI7ocy5wW1nefNm2H2r0vfibJ3k1S+G+Xm6/dLxJ3zlnm6qAfe//U+e+EUJ+yciIiJykVLwJCIiIiIiYoLS9kRERERERExQ8CQiIiIiImKCgicRERERERETFDyJiIiIiIiYoOBJRERERETEBAVPIiIiIiIiJih4EhERERERMUHBk4iIiIiIiAlLcnqWtQXXSjuERhke9vLevAZ26tpbqDYsmR7pYyKYYy9FREREREQWWJbBUzQo8o0yEbJTl6ZNxdgJ3FPhyCJrC66VXaAASkREREREFqks0vYqqG5qgZE+3F5f6mbWGqrxcS4WOAEEp5gGKj5QkXNHRUREREREFlIWI09hpof7TLa1sHQpzFyI/rm0ggog/G443ZNERERERETKVuELRgRHmQhVULeqizorgJ26VY1UhEbxKWVPREREREQWqdwKRqQVGaEK1nTQtLKLaiBsnP8kIiIiIiKyCBWhVHkF1U1dNDWEGD3Vh/v0KDR04GpvobLwGxMRERERESmJggdPS2pWUWfxMXpqkBmAC17OnBpkGjuNDnuhNyciIiIiIlISBQ+eln6gAkIzXIhbGuJCqNBbEhERERERKZ2CB08zfh9YGnHUGMqSWxups8C0P02JcxERERERkTJ22ZXXbHzfbOMlNR00NSS/V9O08Qa41hZcK+2pHxcREREREVlksgqeRERERERELlVFqLYnIiIiIiJy8VHwJCIiIiIiYoKCJxERERERERMUPImIiIiIiJig4ElERERERMQEBU8iIiIiIiImKHgSERERERExQcGTiIiIiIiICQqeRERERERETFDwFGV1bWHb5jasKR7b5LKlX0HDBratdRalbyIiIiIisvByC56sLbjau3A1OViStIGduvauSJu07cqFE1erjfH+foKxRdY2Nm3fQH1Cu87tW2i2pvobwEbz5l46G4reaRERERERKaH/XO9Y8Zfmm9upa++g8f0pJrBhxc/0dID/MDZZ6mBF2xX8fqSPMx4PU5NT/Id9FY329/Enti0XDR1c7Qzg/u3ZueDpwjmmWE33tZ1UXDjHhQ/UcfXadqze39I3Eog2CjDmr6d7YzeOywL4qGbV2qtxXDjJ8ZPnuLBAL0dERERERAoviwGhCqqbWmCkD3ewguqmxqStKpc1UuEb5MxsFBJmenQU26pG7FYvE8GkT1tANprbnAQHDjCe8EjQfYD9bqhf20tn1UkO7TvMvO6PHWb/vmhqX2uA4/v2zFuPiIiIiIgsflmk7YWZHu7LEPxUsLQiyeILYcJAxQeSPbjArE6cVX48Hv/8h1xb2La9FycexgN2Nm3vnT/3qWED27b30mkLMO4F1/ZezX0SEREREbkIlahgRIgLodJsKVv1bWuwBs4wnhgUWtvojI4kuf1VWP0n2b/vMMHW9fFznrqqcB/cw6FRqGeEQ/sO4K7aoDlPIiIiIiIXmQLXcQgTPB+mrqGR6nM+pqOTfpbUrKLOAuHzhd1a/pw4HTDe1z8/HS/Yz6F9kf+dqwfh4fg+j6GR4e+q2DI/Q6/sKU53RURERERkwRS8CN57UycYpoOmVV3URZeFxwaZCLWQodh3yVlda6jHw/Gx9O2C7gMcyrSyscPsz7AeERERERFZvIpSQfy9qRO4p4xL7NQ1QHgiXIzN5chGvdNGcOCICjyIiIiIiEhGJZnztKSmkerQKL5yqrSXplCEiIiIiIhIoqIHT5WOLpoaYGLUy3vF3lgW6tvWYPWeZKicAjoRERERESlbWaXtLanpoKnBWG68kab2yP2epkeiZcyXOlixqpHZVr5B3Kd8Bels4cQKRXgyNxURERERESHL4Gn+XKYkLng5c8qbR5eKz2yhCBERERERkZgS3eepnMQKRZxUoQgRERERETHtsiuv2fj+QndCRERERESk3F2CI08iIiIiIiLZU/AkIiIiIiJigoInERERERERExQ8iYiIiIiImHDJBU919fUsWZJVhXYREREREZFLL3gSERERERHJhYInERERERERExQ8iYiIiIiImKDgyQSrawubXLaF7oaIiIiIiCygrCsnVDq6aLTP/R0eO8GZqXBCqwqqmzqos8T+9jF6apCZnLu5AKxtbOqx4953mODsQied29dw/uABhoJpnptqla4tbGq1gfcw+9/wJG/UsIFtXU4InOTQK/0k34yTzu0bqMePO2VfbDRv3oKrCsb79nB8LI8+iYiIiIhIdsHTkpoOGitGGT7l5T0AawuulR3UvdvHxOwJfDRwCg/iHvYB0YCrvWVxBVDBfo4PbGHT9l7GvR6CrGHbdid4D3M828DJ2samnjUwcJJx1lCftFE0IPKexB1w4kqxqvq1vXQ6PLgH/NS3pticawubWsE94IFWZx59EhERERGRmKzS9t6bOoF7OBo4AQRHmQhBtW1uKGpJzSrqLD5Gvb7ZZTPeQaaxs6ymohB9Lpmg+wD79+3Bg5P6Kh+H9u3JYXTGSWfPCjwH93DI7U/Rxkbz5g3Ql379VtcWOjnM/n2HGU/VqGEDm5xnOLTvAEOpNmeqTyIiIiIiYlSYGx5VVLAEeA9Y+oEK8I3GjzBZa6gGuNzOkilD8FXmYilt414P4wE7m7b3Ehw4kGXA4eH4vkwBl5+hV/ZkXFPQfYD9mRqNHWZ/ihS97PokIiIiIiJGeRaMsLDUAoTD0YCogqUVEH43NNtiSU0HrroZRsfCYKlkaX4bLB1rG52tAY7v24PbX4XVf5L9+w4TbF1Ps3WhOyciIiIiIqWW18hTpaOFasJMnIul6EWDqfOxx7toJDL3aUnNsvx6WmrBfg7ti/zvXKykERsRERERkUtVzsHTkpoOGu0QHjvN9IXY0hAXQlCBheqmDmznT+A2VuILzXAh2crKXNB9gEML3QkREREREVlQOQVPS2o6aGqoAN9gQpnyMBfCUNHQQnikjzOGqnRLP7C4ikWIiIiIiIgYZT/nydoyGzi5DRX1Yi68GwZ8BOPKedux2iF83rdoikWIiIiIiIgYZRc8LXWwYqU9ZeAE8N7UKNPYaXTMlS+PzI3ycW7ezXRFREREREQWh8uuvGbj++aaRm9+a0n+6PSI8Ua5duraWyLlyQFCowwPl0eJ8rr6enxTU7z3Xul6E7mxbbJH/LgPHmAoOFcWPZnxvj0cH2P2xrZJi/15D0fvERW92W6yNoGTHHqln6DJPomIiIiIyJwsgqeLw0IETyIiIiIisvjleZ8nERERERGRS4OCJxERERERERMUPImIiIiIiJig4ElERERERMQEBU8iIiIiIiImKHgSERERERExQcGTiIiIiIiICQqeRERERERETFDwJCIiIiIiYoKCJxERERERERMUPJlgdW1hk8u20N0QEREREZEFtCTbJ1Q6umi0z/0dHjvBmalwkpZ26tpbqCbMxOkTTF/Io5cLwdrGph77/9/e3Tylla17HP+lWhvdcsAuETh6lKAnkmoSq+Npq9IDbwaO/K/uf+WIgeUgXde69C36MJBEd4wnXl5PwMCORG/nDhBFA9sF0r7x/Yxgu/bej4781VrrWbITSTlnF0OKry7o0+tNvXdc7v2GV7MvVxQdO79STK0rXbg4KvB8TfHg+Xdnd1NbdvXioMklvVoMnX+vZbT1644ulGPNa/mXBVlnF3JKJ5Iq9lATAAAAgIbvAsGp/zQdPDQe07RV1L69q3//O6fy0YgC4Wl9d5TT55ZwNBpc1MzUI1ULj2SNSZ/LJdX/+DPK755lWaofHemPP64o6Pijyvq7fvpHXJ7jjzr+fkI/Pn8iK/9PpT7Uunpn4PmqFo6T2vj1f7Rnv1VBf9WTpxF9zb1X5fTvZkVX9NMP77S1+V96a7/VXtWnJ09/lLf6VoVmMrLmtfzzhP71OqFU5q327E/yxp7pifeT9vLNmkKK/8czHafWtfXPt9qzs/oa+lELf/uqwr8+6riLmgAAAACc6yo8/XFUUvmwprPYcXykP8YC+uG7I5VrjdmnofGYpr/7IHs/p/8bCch/X8OTpOPye+3Zb/U19JMejx00gk2+u+AkSU7+bUu4kY7LdXnnIvrhOKuD8pfzd7WEGzmf9DUU0bSnJRgdf9SB3Rpuaqrpr5r+24hq9v+ezj7VVLBbApe+qFL36fHMhL60BCOTmgAAAACc68+eJ4/nbP3fSXlbdr7Sl8feNiu6olerawopp2LNr+XVtb7ufbK8Y1cPGvO2LL/rOEjWlYO8+ovB64xqAgAAAAbQNcPTiIZHJNXrOulLOXeINa/4XE3pxLrs6pisakYbiaScuReavTrNXPHsRiByqm6zWGONsFOrym17leX1SqrJcRnUCERVfXJ7nVFNAAAAwODqumFEq9HgaUOIjw9jpukCZ0dbicbHi40Xctd8sFeziwuylFP6cjOIFoHnSwqoKnvH5X2TS4oHJWc3c6kZRAtrXvE5r5RPujS5MKsJAAAAGGQ9h6eh8ZjCfqleeHf/Oul1ybE3tdWnZwWeNzrcFVOXu9+ds6Irp6Hot86Bx5rX8mJIqmVcAk9I8V9OQ9HvnUOYSU0AAADAoOtp2d7QeEwzkx6pstehTTnaabYid3Y3O7YEt6IrWj6dKfqmTfnZoGYr8pzSl9uUnwkpvno6e/W6cygyqQkAAABAL+HJipwFp4fSGOImnM8mtTm7qWly6Sw4bXScKWqZTfrm7KYmr2ZfNoNT5zOpjGoCAAAAIKnb8DQc1NS0n+DUrdNQ5BpSmsvwXINTMxS5BafmMjz34GRUEwAAAIAzj54++/mr2VCPfDMxTYy0/+nhh5RKjhoB63FYnnaD7kDomggEVCmXdXJyU/0Bm8vn2mkGHK9mXzb2HbVTTK0rXWhZ0tdOM3RNLunVYqj9mFpGW7/uyDGq6arfCwAAABgsXYSnh+HmwxMAAACAh6A/h+QCAAAAwANHeAIAAAAAA4QnAAAAADBAeAIAAAAAA4QnAAAAADBAeAIAAAAAA4QnAAAAADBAeAIAAAAAA4QnAAAAADBAeAIAAAAAA4QnA1Z0RctR722XAQAAAOAWDXV7w2hwUWH/+fd6YVsH5frFQVZE0emWQUdZ7e/nddJrlbfBmtfyL37ZiaScs4shxVcX9On1pt47Lve6PTa6ouU5r1TLaOvXHbV9zOSSXi2GJOWUTiRVbPukkOKrSwpIKqbWlS60G+PV7MsVRcckZ3dTW3a195oAAACAAddVeBoajynsyWr/zWkQsiKKTsc08SWlUvM/7uGgpqZHVHqX0uGxJPk18SSimWBddr7S5/L/RM6O0rsrWl5dUzGfk6MFvVoNSfmk0j2ni5Cic1fNYHk1Ox+68klWdEGBqwZNLig61o+aAAAAAHS1bO+kvC27dQbJyap0JPm8LbNMx3kdvNk+DU6SVFGlUJf84xrtR8U3yLE3tZFYV04hBcYq2kqsa+P3XM/PCzxfUqCWUXq3/QyQJFnRF4qO5ZROubzHmld8zqtiqtOslCSFFF8MydlNyq5dryYAAAAA/drz5PEYTGGNaHi4L2+7MVZ0Ra9W1xRSTsWaX8ura73vfbLmFQ1KxR23ZXGNWSBnN+MSiqTA/IKsWkZ226V6zdoXFFBOtltyMqoJAAAAgHTt8DSi4RFJ9brrfqbh7z2SjnR87DLorrHmFZ+rKZ1Yl10dk1XNaCORlDP3QrNWtw/zanZxQVY+2WFvUsPZLFCHvUmSpMklxYNV2SmXwGM0M2VWEwAAAICGrhtGtBoNRuRTXaWPLnuZrIjCfqleyOrzdV5205wdbSUaH8+zUk7pRA/L9iYXFB2ryr5iKV40KBXdQlFzP1Q+6dqwojkz5RqKTGoCAAAAcKbnmaeh8dhpKHrXsr/pkuGgpqb90lFW+csd+e4Rx+7cqe5qzb1Hv7kEHrNZoLP9UG77rkxmpoxqAgAAANCqp/A0NB7TzKRHqux926a8aTioqcdheVRR9r61Ke+j871HbkvxTmeBdtxmgUz2QzVnpjKuocioJgAAAAAXPHr67OevXd3RPMOpsufSerzRntynirJv9u7Ucr2JQECVclknJzcR587PWeqoltHb2oL+HnR7Tk7plBRfdG9hXtzOyIotyG1LlrP738qF/nFlTZz3BAAAAFzUXXhqzia5BiePfDMxTYzcveAk3XR4as+Krmg5dOAeUCaX9GpRLofkSs2DctXxkFypGeBCOfelh0Y1AQAAAAOsi4YRHvnCYXkkyR9R1H/xp4cfGgflDo0/1sSIJPkVfrJ4cZBr6AIAAACAu6v7ZXv33F2YeQIAAABw//TnkFwAAAAAeOAITwAAAABggPAEAAAAAAYITwAAAABggPAEAAAAAAYITwAAAABggPAEAAAAAAYITwAAAABggPAEAAAAAAYITwAAAABggPBkwIquaDnqve0yAAAAANyioW5vGA0uKuw//14vbOugXG8Z4dfEk4h8rTdV9mTnKz0XeSuseS3/4pedSMo5uxhSfHVBn15v6r3jcu/lR0VXtDzXGr6qsi8/Y3JJrxZDF+4rptaVLrReCSm+uqRA66V8Uhu/51oueDX7ckXRsZZLtYy2ft1R6+uMagIAAABw5tHTZz9/NR08NB7TzF8+an8/rxNJsiKKTvt1+CGlUsd/uk/D1B0JUBOBgCrlsk5OTq4c2wwYxXwjnASCoTZhpXuN58o9rJyGqW8DVKvTMOVa02mY0rcBquuaAAAAgAHW1bK9k/K27GZwkiQnq9KR5PP6Xe6qqFKoS/5xjfZc5u1w7E1tJNaVU0iBsYq2EuvXDk6N52ZUlFehkMtSwEJGdk0KhEOdxygne7cqBacvzkZdUNX7nZw0NqWAdc2aAAAAgAHWnz1PHs/V6/+OPuu4Ly+7OVZ0Ra9W1xRSTsWaX8ura33d++RUqwZjalc/qFbpOKPUMkiOwYySSU0AAADAILpmeBrR8Iikel0dF8ENBxWc9OiwlO885i6y5hWfqymdWJddHZNVzWgjkZQz90KzLjM4JgLPlxSoZWR3XI4nWdEXio7lZNsuYcaaV3zOq+JO5+V4UkjxxZCc3YyK16wJAAAAGGRdN4xoNRqMyKe6Sh8v72W61DSisqeD+7aPxtnRVqLx8Twr5ZRO9LZs72KDhqrs120Cz6WmEcXUZpvAc6lpRD6prW8Cz6WmEbWMttqEMKOaAAAAAEjqsmFEq6HxmGYmPW267X2r0aGvouybPX3uqcz+6aZhxJ/GmtfyLwvS7mbbUNNg0gxCCjxfUzyYUzqR7DizZNQMwqgmAAAAYHD1tGyvGZxU2bsyOEnS5/yeDuXXD+OeXl738Dg7Su9WZc0tuDR6yCmdyknBBddlgsXfkyoqpKjLXizH/k12zavovEvzCaOaAAAAgMHVfXiyImfBqdvW4/UvVwetgXLDjR7613wCAAAAGDzdhafhoKam/V0GJ498MxH5jrKq8F95w+RS4/wot0YP1ryWr2z04NXsy6sbPQSer1zdfMKkJgAAAGCAddEwwiNfOCyPJPkjil462unsoNzTg3Nb1Qvbsg2W9z1Ml5o3SGo0nli/EIoae5dax1Rlv16/uEfpUkMJSXJ2N7XRGopO9y5dWOmXT2rjQqMLs5oAAAAAnOu5YcR9dScaRgAAAAC4d/pzSC4AAAAAPHCEJwAAAAAwQHgCAAAAAAOEJwAAAAAwQHgCAAAAAAOEJwAAAAAwQHgCAAAAAAOEJwAAAAAwQHgCAAAAAAOEJwNWdEXLUa/h6JDiq2uKT/6pJQEAAAC4YUPd3jAaXFTYf/69XtjWQbneYbRfE08i8kk6/JBSyemtyFthzWv5F7/sRFLnZYcUX13Qp9ebet/hd7GiCwrUMtoq3FCdAAAAAG5EV+FpaDymsCer/Td5nUiSFVF0OqaJL+2D0dB4WL7+1HnznB2ld1e0vLqmYj4nRwt6tRqS8kmlO4ZArwIhr5xcTvcpJwIAAAC4Wlfh6aS8LbvccsHJqnTk14TXr5JTuTh4OKjgpEeHH/ak6UgfSr15jr2pDVsKPF9TfCyjrQuzUG1MLig6llPart5UiQAAAABuSH/2PHk836Sw0R/C8hxlVbnHUzBWdEWvVtcUUk7Fml/Lq2uue58C4ZCU/6DiDdYIAAAA4GZcMzyNaHhEUr3eWMbXZEUU9tdVyuYvXr9PrHnF52pKJ9ZlV8dkVTPaSCTlzL3QrNV+fDQoFbO5Gy8VAAAAwJ+v64YRrUaDEflUV+lj65I9j3wTfqmyp8Pja1Z3m5wdbSUaH8+zUk7pRPtwZIWmZNUyStMoAgAAAHiQeg5PQ+Mxhf1SvfDuQkgaGn+siZGKsvuVzjffM469qS3XESFF57xydmkUAQAAADxUPS3bGxqPaWbSI1X2LrUp98s/6VG9kNXnPhV4L0xOK6CcbBpFAAAAAA9W9zNPVuQsONn5S7NL1nijNflkTNHLh8ROL97P854MNBpFJGkUAQAAADxg3YWn4aCmpv3tg5MkOXuy31y+2DgoVw8wNEk6bRRRlf2aRhEAAADAQ9ZFePLIFw7LI0n+iKL+iz99iDNKJhqNIg5UHMDfHQAAABgkXYSnug73Uzrs+hUVld6kur7rfqBRBAAAADAo+nNI7qCiUQQAAAAwMK51ztPAKyS1kbjtIgAAAADcBGaeAAAAAMAA4QkAAAAADBCeAAAAAMAA4QkAAAAADAxcw4hSsXjbJQAAAAC4h5h5AgAAAAADhCcAAAAAMEB4AgAAAAADhCcAAAAAMNB1w4jR4KLC/vPv9cK2Dsr1lhF+TTyJyHf5xqOs9vfzOumpTAAAAAC4XV2Fp6HxmMKerPbfnIYgK6LodEwTX1IqORfHHn749hoAAAAA3FddLds7KW/Lbp09crIqHUk+r9/tNgAAAAC49/qz58njGbwDowAAAAAMlGtmnhENj0iq1L/Zy+SbXjzf98R+JwAAAAD33LXC02gwIp/qKn2stFytqPQmpdLZd498MzHNPBlV9s2ePl/nhQAAAABwS3petjc0HlPYL9UL73R47DayrsNsVnX5ZVm9vg0AAAAAbldP4WloPKaZSY9U2bvUptyd53tPL68DAAAAgFvXfXiyImfByc5Xrh4vScOj8qiuas08aAEAAADAXdJdeBoOamra32Vwat6TvWJ5HwAAAADcXV00jPDIFw7LI0n+iKKXjnY6OxR3OKipx6fjJEl1ld6ldEBwAgAAAHCPPXr67Oevt10EAAAAANx1/TkkFwAAAAAeOMITAAAAABggPAEAAACAAcITAAAAABggPAEAAACAAcITAAAAABggPAEAAACAAcITAAAAABggPAEAAACAAcITAAAAABggPAEAAACAAcITAAAAABggPAEAAACAAcITAAAAABggPAEAAACAAcITAAAAABggPAEAAACAAcITAAAAABggPAEAAACAAcITAAAAABj4f6fu6Iup5m4UAAAAAElFTkSuQmCC;" parent="1" vertex="1">
                    <mxGeometry x="430" y="250" width="847" height="589" as="geometry"/>
                </mxCell>
            </root>
        </mxGraphModel>
    </diagram>
</mxfile>